<svg xmlns="http://www.w3.org/2000/svg" xmlns:xlink="http://www.w3.org/1999/xlink" width="266.578" height="560.533" viewBox="0 0 266.578 560.533"><defs><clipPath id="a"><path d="M159.79-88.138l13.79,7.581-1.2,6.476-24.506-3.365,1.317-9.325,10.6-1.368" transform="translate(-147.876 88.138)" fill="none" clip-rule="evenodd"/></clipPath><clipPath id="b"><path d="M-46-44.059H926.044V-751H-46Z" transform="translate(46 751)" fill="none"/></clipPath><clipPath id="c"><path d="M89.22-80.117l-9.592-.116-2.342,8.122.242.069-.061.008L93.443-62.85l7.548.739.845-8.626L99.78-72.2,89.22-80.117" transform="translate(-77.286 80.233)" fill="none" clip-rule="evenodd"/></clipPath><clipPath id="e"><path d="M116.538-256.084c1.54-.162,5.744,55.034,5.744,55.034l-29.855,100.3-17.215-3.389L85.7-204.282S49.256-246.307,59.75-277.7c15.856,7.689,56.788,21.614,56.788,21.614" transform="translate(-57.852 277.698)" fill="none" clip-rule="evenodd"/></clipPath><clipPath id="g"><path d="M166.789-252.71l3.483,49.211-9.606,97.947-17.72-.9s-4.27-92.771-6.026-94.664-16.846-50.57-16.846-50.57l46.714-1.02" transform="translate(-120.075 252.71)" fill="none" clip-rule="evenodd"/></clipPath><clipPath id="i"><path d="M135.991-250.536c-56.278-1.032-60.408-29.429-72.8-32.526s-5.931-17.855-5.931-17.855,2.346-6.583,3.35-10.026c7.227-24.778,28.927-56.584,28.935-56.594,10.7-14.6,21.446-27.505,30.72-35.294C147.851-426,177.4-427.08,177.4-427.08c42.561,13.308,27.54,33.319,28.028,38.584-14,12.831-24.139,32.055-31.619,52.7a123.127,123.127,0,0,0-4.776,52.737c.931,7.352,2.009,13.726,3.078,19.277.207,7.246-6.762,13.716-36.121,13.25" transform="translate(-55.576 427.08)" fill="none" clip-rule="evenodd"/></clipPath><clipPath id="k"><path d="M182.748-422.2s9.473-5.19,15.339,3.834c7.122,10.957-33.139,60.372-32.183,166.053-10.549,2.137-37.738,7.238-65.78-6,6.37-31.4,33.864-126.09,82.624-163.891" transform="translate(-100.124 423.684)" fill="none" clip-rule="evenodd"/></clipPath><clipPath id="m"><path d="M216.473-460.661c4.768,3.721,8.907,11.63,7.265,17.856-.791,3-2.955,5.007-3.675,8.25-1.442,6.388-12.55,11.092-7.878,18.5,2.4,3.81,7.053,5.421,11.352,6.768a3.3,3.3,0,0,0,1.6.223,2.323,2.323,0,0,0,1.639-1.94,9.423,9.423,0,0,0-.1-2.685c-.979-9.354,5.352-18.717,7.7-27.557,2.341-8.823,2.219-18.895-3.9-26.222-5.215.483-7.327-.523-10.675,3.506l-3.336,3.3" transform="translate(-211.045 467.463)" fill="none" clip-rule="evenodd"/></clipPath><clipPath id="o"><path d="M202.35-423.417c6.208.489,12.273-2.914,16.208-7.739s6.008-10.911,7.3-17c4.288-20.272-20.538-26.829-33.626-14.429-11.406,10.806-7.929,37.752,10.121,39.171" transform="translate(-185.656 468.869)" fill="none" clip-rule="evenodd"/></clipPath><clipPath id="q"><path d="M163.724-429.072c3.3-.244,6.59-.585,9.547-2.719,4.779-3.45,7.6-11.224,10.533-16.147,3.089-5.189,6.626-10.755,12.332-12.736,3.726-1.294,7.036-.452,10.536.952,2.4.961,2.111,1.9,4.661,1.466,1.954-.332,4.5-2.7,5.573-4.264a10.72,10.72,0,0,0,.968-9.207,15.027,15.027,0,0,0-8.615-9.819c-15.369-6.855-30.875-2.545-41.611,10.775-5.161,6.4-7.009,15.166-12.195,21.236-3.2,3.747-7.186,5.466-10.245,9.6-7.938,10.736-20.967,23.257-25.656,35.836a1.881,1.881,0,0,0-.117,1.443c.437.912,1.8.6,2.7.146l15.854-7.911a24.952,24.952,0,0,0,5.89-3.659c4.257-3.9,5.732-10.641,10.9-13.221,2.819-1.407,5.885-1.549,8.942-1.775" transform="translate(-119.331 484.767)" fill="none" clip-rule="evenodd"/></clipPath><clipPath id="s"><path d="M138.054-400.352l-42.471-9.962L84.231-466.758l14.1,1.231,10.884,36.862,55.055,1.572,3.146,4.195-29.362,22.546" transform="translate(-84.231 466.758)" fill="none" clip-rule="evenodd"/></clipPath><clipPath id="u"><path d="M103.026-474.69l-1.388-14.8-10.484-8.017-.616,4.317,3.7,3.7s.924,4.317,3.545,6.475a49.561,49.561,0,0,1-2.313,7.708l7.555.617" transform="translate(-90.538 497.507)" fill="none" clip-rule="evenodd"/></clipPath><clipPath id="w"><path d="M99.718-412.717a20.84,20.84,0,0,0-12.761,10.424,20.837,20.837,0,0,0-1.542,16.406A20.816,20.816,0,0,0,95.84-373.125a20.834,20.834,0,0,0,16.405,1.541,22.183,22.183,0,0,0,6.116-2.9,20.891,20.891,0,0,0,6.646-7.526,20.835,20.835,0,0,0,1.541-16.405,20.85,20.85,0,0,0-10.427-12.763,20.851,20.851,0,0,0-16.4-1.54" transform="translate(-84.41 413.721)" fill="none" clip-rule="evenodd"/></clipPath><clipPath id="y"><path d="M117.469-411.177a20.851,20.851,0,0,0-16.4-1.54,22.61,22.61,0,0,0-5.077,2.235,20.682,20.682,0,0,1,11.813,2.45,20.859,20.859,0,0,1,10.427,12.763,20.837,20.837,0,0,1-1.541,16.406,20.891,20.891,0,0,1-6.646,7.526c-.339.232-.688.451-1.044.664a22.972,22.972,0,0,0,4.6-.91,22.183,22.183,0,0,0,6.116-2.9,20.891,20.891,0,0,0,6.646-7.526,20.835,20.835,0,0,0,1.541-16.405,20.85,20.85,0,0,0-10.427-12.763" transform="translate(-95.988 413.721)" fill="none" clip-rule="evenodd"/></clipPath><clipPath id="aa"><path d="M109.441-620.849c-16.09-7.777-34.7-8.537-55.323-2.257S18.374-605.8,9.151-590.321C1.133-576.867-1.166-561.784,2.317-545.49a10.081,10.081,0,0,0,4.732,6.564,10.078,10.078,0,0,0,8.033.957l12.278-3.74a10.054,10.054,0,0,0,6.949-11.471c-1.665-8.95-.548-16.561,3.417-23.269,4.8-8.118,13.23-14.062,25.056-17.664,11.789-3.59,22.071-3.2,30.558,1.164,8.455,4.354,14.527,12.422,18.047,23.981,4.852,15.932,3.558,28.056-3.848,36.033-7.8,8.4-21.881,15.63-41.88,21.5l-5.314,1.618a10.066,10.066,0,0,0-6.689,12.547l14.093,46.271a9.982,9.982,0,0,0,4.888,5.943,9.986,9.986,0,0,0,7.658.746L92.749-448.1a10.01,10.01,0,0,0,2.747-1.318,10.076,10.076,0,0,0,3.942-11.229l-9.127-29.965a.724.724,0,0,1,.456-.893c23.018-7.69,39.275-18.272,48.323-31.455,9.622-14.02,11.166-32.081,4.588-53.679-6.552-21.513-18.07-36.387-34.237-44.21" transform="translate(-0.742 627.31)" fill="none" clip-rule="evenodd"/></clipPath><clipPath id="ac"><path d="M112.271-620.849c-16.09-7.777-34.7-8.537-55.323-2.257-12.764,3.887-23.423,9.6-31.88,17.058a97.354,97.354,0,0,1,17.207-7.008c20.62-6.279,39.233-5.52,55.324,2.258,16.165,7.823,27.685,22.7,34.236,44.21,6.578,21.6,5.034,39.659-4.588,53.679a59.627,59.627,0,0,1-10.367,11.4c11.046-6.1,19.431-13.278,25.041-21.452,9.622-14.02,11.166-32.081,4.588-53.679-6.552-21.513-18.07-36.387-34.237-44.21" transform="translate(-25.067 627.31)" fill="none" clip-rule="evenodd"/></clipPath><clipPath id="ae"><path d="M221.832-539.845a15.153,15.153,0,0,0-11.217,4.223,15.152,15.152,0,0,0-4.872,10.952,15.142,15.142,0,0,0,4.224,11.217,15.152,15.152,0,0,0,10.951,4.871,16.142,16.142,0,0,0,4.888-.578,15.2,15.2,0,0,0,6.329-3.645,15.16,15.16,0,0,0,4.871-10.952,15.17,15.17,0,0,0-4.225-11.217,15.166,15.166,0,0,0-10.951-4.87" transform="translate(-205.736 539.853)" fill="none" clip-rule="evenodd"/></clipPath><clipPath id="ag"><path d="M234.337-534.975a15.166,15.166,0,0,0-10.951-4.87,16.494,16.494,0,0,0-4.019.361,15.042,15.042,0,0,1,7.575,4.432,15.167,15.167,0,0,1,4.225,11.218,15.155,15.155,0,0,1-4.871,10.951,15.194,15.194,0,0,1-6.329,3.645c-.287.081-.579.151-.872.216a16.662,16.662,0,0,0,3.378.439,16.142,16.142,0,0,0,4.888-.578,15.2,15.2,0,0,0,6.329-3.645,15.161,15.161,0,0,0,4.871-10.952,15.17,15.17,0,0,0-4.225-11.217" transform="translate(-219.095 539.853)" fill="none" clip-rule="evenodd"/></clipPath><clipPath id="ai"><path d="M275.248-679.611c-9.287-9.1-21.942-13.942-37.614-14.4s-28.657,3.635-38.608,12.161c-8.65,7.414-13.736,17.278-15.118,29.318a7.33,7.33,0,0,0,1.738,5.623,7.328,7.328,0,0,0,5.315,2.524l9.332.273a7.313,7.313,0,0,0,7.453-6.294c.93-6.556,3.468-11.543,7.757-15.247,5.193-4.482,12.385-6.622,21.373-6.36,8.96.262,15.957,2.919,20.795,7.9,4.818,4.964,7.13,11.935,6.874,20.72-.354,12.109-4.061,20.166-11.018,23.946-7.326,3.979-18.712,5.694-33.862,5.1l-4.038-.118a7.321,7.321,0,0,0-7.524,7.1L207.077-572.2a7.262,7.262,0,0,0,1.99,5.231,7.266,7.266,0,0,0,5.106,2.292l9.466.277a7.278,7.278,0,0,0,2.2-.272,7.326,7.326,0,0,0,5.323-6.825l.665-22.775a.527.527,0,0,1,.522-.51c17.651.042,31.316-3.478,40.613-10.465,9.887-7.432,15.144-19.523,15.624-35.938.477-16.351-4.011-29.278-13.338-38.423" transform="translate(-183.861 694.045)" fill="none" clip-rule="evenodd"/></clipPath><clipPath id="ak"><path d="M278.913-679.611c-9.287-9.1-21.942-13.942-37.614-14.4-9.7-.284-18.373,1.18-25.936,4.357a70.825,70.825,0,0,1,13.488-.836c15.672.458,28.327,5.3,37.613,14.4,9.328,9.146,13.815,22.073,13.338,38.424-.48,16.416-5.737,28.507-15.624,35.938a43.35,43.35,0,0,1-9.794,5.453c9.032-1.644,16.477-4.643,22.242-8.975,9.887-7.432,15.144-19.523,15.624-35.938.477-16.351-4.011-29.278-13.338-38.423" transform="translate(-215.363 694.045)" fill="none" clip-rule="evenodd"/></clipPath><clipPath id="am"><path d="M226.715-345.059l-4.9-53.8L209.24-399.4l-8.6,41.461-10.462,17.458,16,15.424s13.6-8.418,15.363-9.019l5.171-10.981" transform="translate(-190.183 399.402)" fill="none" clip-rule="evenodd"/></clipPath><clipPath id="ao"><path d="M222.607-401.272l-.081-14.135-8.577-4.388-8.184,5.085,5.024,6.727,4.644,6.4,7.175.312" transform="translate(-205.765 419.796)" fill="none" clip-rule="evenodd"/></clipPath></defs><g transform="translate(-0.742 694.045)"><g transform="translate(130.761 -158.619)" clip-path="url(#a)"><g transform="translate(-171.324 -585.756)" clip-path="url(#b)"><path d="M142.876-93.138h34.54v22.894h-34.54Z" transform="translate(24.029 674.475)" fill="#292948"/></g></g><g transform="translate(68.382 -151.634)" clip-path="url(#c)"><g transform="translate(-108.945 -592.741)" clip-path="url(#b)"><path d="M72.286-85.233h33.387v26.958H72.286Z" transform="translate(32.241 673.556)" fill="#292948"/></g></g><g transform="translate(51.209 -326.129)" clip-path="url(#e)"><g transform="translate(-91.772 -418.246)" clip-path="url(#b)"><path d="M52.852-282.7h73.267V-96.91H52.852Z" transform="translate(34.501 696.526)" fill="#8babee"/></g></g><g transform="translate(106.194 -304.048)" clip-path="url(#g)"><g transform="translate(-146.757 -440.327)" clip-path="url(#b)"><path d="M115.075-257.71h59.034v155.995H115.075Z" transform="translate(27.263 693.619)" fill="#8babee"/></g></g><g transform="translate(49.198 -458.134)" clip-path="url(#i)"><g transform="translate(-89.761 -286.241)" clip-path="url(#b)"><path d="M50.576-432.08H211.45v185.4H50.576Z" transform="translate(34.766 713.902)" fill="#5d66d2"/></g></g><g transform="translate(88.564 -455.133)" clip-path="url(#k)"><g transform="translate(-129.126 -289.242)" clip-path="url(#b)"><path d="M95.124-428.684H202.769V-245.7H95.124Z" transform="translate(29.584 713.507)" fill="#fff"/></g></g><g transform="translate(186.582 -493.82)" clip-path="url(#m)"><g transform="translate(-227.145 -250.555)" clip-path="url(#b)"><path d="M206.045-472.463h33.58v67.273h-33.58Z" transform="translate(16.681 718.6)" fill="#292948"/></g></g><g transform="translate(164.146 -495.062)" clip-path="url(#o)"><g transform="translate(-204.709 -249.313)" clip-path="url(#b)"><path d="M180.656-473.869h49.527v54.335H180.656Z" transform="translate(19.635 718.763)" fill="#eacdaf"/></g></g><g transform="translate(105.536 -509.111)" clip-path="url(#q)"><g transform="translate(-146.099 -235.264)" clip-path="url(#b)"><path d="M114.331-489.767H222.307v91.538H114.331Z" transform="translate(27.35 720.613)" fill="#292948"/></g></g><g transform="translate(74.519 -493.197)" clip-path="url(#s)"><g transform="translate(-115.082 -251.178)" clip-path="url(#b)"><path d="M79.231-471.758h92.022v75.242H79.231Z" transform="translate(31.433 718.518)" fill="#5d66d2"/></g></g><g transform="translate(80.093 -520.369)" clip-path="url(#u)"><g transform="translate(-120.655 -224.006)" clip-path="url(#b)"><path d="M85.538-502.507h21.325v31.653H85.538Z" transform="translate(30.699 722.094)" fill="#ebceb0"/></g></g><g transform="translate(74.678 -446.329)" clip-path="url(#w)"><g transform="translate(-115.241 -298.046)" clip-path="url(#b)"><path d="M79.41-418.721h51.98v51.979H79.41Z" transform="translate(31.412 712.348)" fill="#d56f85"/></g></g><g transform="translate(84.909 -446.329)" clip-path="url(#y)"><g transform="translate(-125.472 -298.046)" clip-path="url(#b)"><path d="M90.988-418.721h41.749v51.884H90.988Z" transform="translate(30.065 712.348)" fill="#c85876"/></g></g><g transform="translate(0.742 -635.073)" clip-path="url(#aa)"><g transform="translate(-41.305 -109.302)" clip-path="url(#b)"><path d="M-4.258-632.31H151.514v192.282H-4.258Z" transform="translate(41.144 737.194)" fill="#d56f85"/></g></g><g transform="translate(22.237 -635.073)" clip-path="url(#ac)"><g transform="translate(-62.8 -109.302)" clip-path="url(#b)"><path d="M20.067-632.31H154.344v134.639H20.067Z" transform="translate(38.315 737.194)" fill="#c85876"/></g></g><g transform="translate(181.891 -557.789)" clip-path="url(#ae)"><g transform="translate(-222.453 -186.586)" clip-path="url(#b)"><path d="M200.736-544.853h40.116v40.115H200.736Z" transform="translate(17.299 727.02)" fill="#d56f85"/></g></g><g transform="translate(193.695 -557.789)" clip-path="url(#ag)"><g transform="translate(-234.258 -186.586)" clip-path="url(#b)"><path d="M214.1-544.853h28.311v40.115H214.1Z" transform="translate(15.745 727.02)" fill="#c85876"/></g></g><g transform="translate(162.56 -694.045)" clip-path="url(#ai)"><g transform="translate(-203.123 -50.33)" clip-path="url(#b)"><path d="M178.861-699.045h113.6v138.482h-113.6Z" transform="translate(19.843 744.956)" fill="#d56f85"/></g></g><g transform="translate(190.398 -694.045)" clip-path="url(#ak)"><g transform="translate(-230.96 -50.33)" clip-path="url(#b)"><path d="M210.363-699.045h85.759v106.607H210.363Z" transform="translate(16.179 744.956)" fill="#c85876"/></g></g><g transform="translate(168.147 -433.676)" clip-path="url(#am)"><g transform="translate(-208.709 -310.699)" clip-path="url(#b)"><path d="M185.183-404.4h45.369v83.18H185.183Z" transform="translate(19.108 710.683)" fill="#5d66d2"/></g></g><g transform="translate(181.916 -451.698)" clip-path="url(#ao)"><g transform="translate(-222.479 -292.677)" clip-path="url(#b)"><path d="M200.765-424.8h25.679v27.36H200.765Z" transform="translate(17.296 713.055)" fill="#eac1a3"/></g></g></g></svg>