<svg xmlns="http://www.w3.org/2000/svg" xmlns:xlink="http://www.w3.org/1999/xlink" width="198" height="198" viewBox="0 0 198 198"><defs><clipPath id="a"><path d="M50.6-208.1s2.348,19.243-1.046,27.567l7.227.679.287-30.586L50.6-208.1" transform="translate(-49.556 210.44)" fill="none" clip-rule="evenodd"/></clipPath><clipPath id="b"><path d="M-335-588.892H37.108V-961H-335Z" transform="translate(335 961)" fill="none"/></clipPath><clipPath id="c"><path d="M58.261-128.272q-3.08.219-6.165.167c-.331-.006-.316.538.014.543q3.087.052,6.165-.167c.328-.023.316-.567-.015-.543" transform="translate(-51.855 128.273)" fill="none" clip-rule="evenodd"/></clipPath><clipPath id="e"><path d="M59.336-136.973l-5.513.274c-.329.016-.316.559.015.543l5.513-.273c.33-.017.316-.56-.015-.543" transform="translate(-53.582 136.973)" fill="none" clip-rule="evenodd"/></clipPath><clipPath id="g"><path d="M59.644-144.473a24.983,24.983,0,0,1-5.263.158c-.329-.025-.313.518.015.543a25,25,0,0,0,5.263-.158c.324-.044.313-.588-.014-.543" transform="translate(-54.142 144.476)" fill="none" clip-rule="evenodd"/></clipPath><clipPath id="i"><path d="M60.685-154.912a40.716,40.716,0,0,1-5.391.455c-.33.006-.316.549.015.543a40.719,40.719,0,0,0,5.39-.455c.323-.049.312-.593-.014-.543" transform="translate(-55.053 154.916)" fill="none" clip-rule="evenodd"/></clipPath><clipPath id="k"><path d="M60.284-164.317q-2.629.166-5.262.174c-.331,0-.316.544.015.543q2.634-.008,5.262-.174c.329-.021.316-.564-.015-.543" transform="translate(-54.782 164.318)" fill="none" clip-rule="evenodd"/></clipPath><clipPath id="m"><path d="M59.909-173.7q-2.557.256-5.124.315a.273.273,0,0,0,.014.543q2.568-.059,5.124-.315c.327-.033.315-.576-.014-.543" transform="translate(-54.544 173.697)" fill="none" clip-rule="evenodd"/></clipPath><clipPath id="o"><path d="M59.463-184.326q-2.745.345-5.505.46a.236.236,0,0,0-.133.05l0,.065c.025.135.043.271.059.407a.193.193,0,0,0,.085.022q2.762-.115,5.506-.46c.325-.041.314-.584-.015-.543" transform="translate(-53.824 184.329)" fill="none" clip-rule="evenodd"/></clipPath><clipPath id="q"><path d="M60-194.885l-5.382.313c-.329.019-.316.562.014.543l5.382-.313c.329-.019.316-.562-.014-.543" transform="translate(-54.374 194.885)" fill="none" clip-rule="evenodd"/></clipPath><clipPath id="s"><path d="M71.574-45.906l-13.682-.033.032-22.36,13.682.033-.032,22.36" transform="translate(-57.892 68.299)" fill="none" clip-rule="evenodd"/></clipPath><clipPath id="u"><path d="M111.706-45.808l-3.043-.008.032-22.36,3.043.007-.032,22.36" transform="translate(-108.663 68.176)" fill="none" clip-rule="evenodd"/></clipPath><clipPath id="w"><path d="M137.1-42.359a3.917,3.917,0,0,1-3.887,3.951,3.926,3.926,0,0,1-3.875-3.97,3.917,3.917,0,0,1,3.887-3.951,3.926,3.926,0,0,1,3.875,3.97" transform="translate(-129.338 46.329)" fill="none" clip-rule="evenodd"/></clipPath><clipPath id="y"><path d="M162.9-103.639l-130.164-.316a.305.305,0,0,1-.3-.309l.025-17.417a.3.3,0,0,1,.3-.307l130.164.316a.305.305,0,0,1,.3.309l-.025,17.417a.3.3,0,0,1-.3.307" transform="translate(-32.43 121.987)" fill="none" clip-rule="evenodd"/></clipPath><clipPath id="aa"><path d="M82.6-106.466l-.011,7.817,4.12-3.472L82.6-106.466" transform="translate(-82.591 106.466)" fill="none" clip-rule="evenodd"/></clipPath><clipPath id="ac"><path d="M98.383-104.156l-.009,6.31,3.326-2.8-3.317-3.507" transform="translate(-98.374 104.156)" fill="none" clip-rule="evenodd"/></clipPath><clipPath id="ae"><path d="M54.315-103.9l-.592,0,.026-18.032h.592L54.315-103.9" transform="translate(-53.723 121.937)" fill="none" clip-rule="evenodd"/></clipPath><clipPath id="ag"><path d="M62.7-103.883H62.1l.026-18.033h.592L62.7-103.883" transform="translate(-62.104 121.917)" fill="none" clip-rule="evenodd"/></clipPath><clipPath id="ai"><path d="M176.434-175.531,66.286-175.8l.037-26.453,110.148.267.106.362a45.654,45.654,0,0,1-.144,26.09" transform="translate(-66.286 202.251)" fill="none" clip-rule="evenodd"/></clipPath><clipPath id="ak"><path d="M115.641-175.678l-15.391-.037.038-26.453,15.39.037-.037,26.453" transform="translate(-100.25 202.168)" fill="none" clip-rule="evenodd"/></clipPath><clipPath id="am"><path d="M25.5-292.82,5.068-295.877l.739,2.336C8.028-286.519,7.291-278,4.572-271.185l.887.4,19.493,7.33L25.5-292.82" transform="translate(-4.572 295.877)" fill="none" clip-rule="evenodd"/></clipPath><clipPath id="ao"><path d="M144.893-294.126l-120.772.679L4.678-297.724l129.447-1.088,10.769,4.686" transform="translate(-4.678 298.812)" fill="none" clip-rule="evenodd"/></clipPath><clipPath id="aq"><path d="M3.329-295.234a80.861,80.861,0,0,1,10.054,2.123l9.35,2.188c.494.116.707-.66.211-.776l-10.1-2.363A76.26,76.26,0,0,0,3.33-296.04c-.505-.052-.5.754,0,.806" transform="translate(-2.952 296.042)" fill="none" clip-rule="evenodd"/></clipPath><clipPath id="as"><path d="M22.1-216.438a158.011,158.011,0,0,1-20.6-7.454c-.692-.306-1.3.733-.6,1.042a160.177,160.177,0,0,0,20.88,7.576.6.6,0,0,0,.316-1.164" transform="translate(-0.598 223.948)" fill="none" clip-rule="evenodd"/></clipPath><clipPath id="au"><path d="M183.954-255.677,63.183-255.97l.535-6.275a95.271,95.271,0,0,0,.07-15.308L63.223-284,184-284.681l.116.4a50.061,50.061,0,0,1-.158,28.607" transform="translate(-63.183 284.681)" fill="none" clip-rule="evenodd"/></clipPath><clipPath id="aw"><path d="M161.026-346.13l-114.454-.278a.305.305,0,0,1-.3-.309l.038-26.8a.3.3,0,0,1,.3-.307l114.454.278a.306.306,0,0,1,.3.309l-.038,26.8a.3.3,0,0,1-.3.307" transform="translate(-46.271 373.821)" fill="none" clip-rule="evenodd"/></clipPath><clipPath id="ay"><path d="M343.674-345.743l-1.364,0,.039-27.519,1.364,0-.039,27.519" transform="translate(-342.31 373.265)" fill="none" clip-rule="evenodd"/></clipPath><clipPath id="ba"><path d="M360.333-345.7l-1.364,0,.039-27.519,1.364,0-.039,27.519" transform="translate(-358.969 373.225)" fill="none" clip-rule="evenodd"/></clipPath><clipPath id="bc"><path d="M177.894-193.326l-84.851-3.115,0-1.6,83.884.2c0,.006.34,1.3.633,2.687q.182.893.327,1.791c0,.01,0,.02,0,.03m-100.241-3.68L66.39-197.42h0v-.682l11.264.028,0,1.068" transform="translate(-66.39 198.102)" fill="none" clip-rule="evenodd"/></clipPath><clipPath id="be"><path d="M115.743-196.386l-15.39-.565,0-1.068,15.39.037,0,1.6" transform="translate(-100.353 198.019)" fill="none" clip-rule="evenodd"/></clipPath><clipPath id="bg"><path d="M401.931-187.4q-.146-.9-.327-1.791c.129.611.249,1.241.327,1.791" transform="translate(-401.604 189.192)" fill="none" clip-rule="evenodd"/></clipPath><clipPath id="bi"><path d="M66.147-197.421l-.12-.679,0,0h.118v.682" transform="translate(-66.027 198.103)" fill="none" clip-rule="evenodd"/></clipPath><clipPath id="bk"><path d="M66.026-198.1v0h0l0,0" transform="translate(-66.025 198.103)" fill="none" clip-rule="evenodd"/></clipPath><clipPath id="bm"><path d="M176.686-197.834l-83.884-.2-15.39-.037L66.147-198.1h-.122l110.661.269" transform="translate(-66.025 198.103)" fill="none" clip-rule="evenodd"/></clipPath></defs><ellipse cx="86" cy="85.5" rx="86" ry="85.5" transform="translate(13 14)" fill="#f6eaea"/><g fill="none" stroke="#d56f85" stroke-width="1" stroke-dasharray="2 2"><circle cx="99" cy="99" r="99" stroke="none"/><circle cx="99" cy="99" r="98.5" fill="none"/></g><g transform="translate(43.973 100.934)" clip-path="url(#a)"><g transform="translate(-127.537 -248.921)" clip-path="url(#b)"><path d="M44.556-215.44H55.387v33.9H44.556Z" transform="translate(81.323 462.703)" fill="#e2e3e2"/></g></g><g transform="translate(44.736 128.184)" clip-path="url(#c)"><g transform="translate(-128.299 -276.172)" clip-path="url(#b)"><path d="M46.855-133.273h9.976v4.037H46.855Z" transform="translate(79.786 407.787)" fill="#dddbdb"/></g></g><g transform="translate(45.308 125.299)" clip-path="url(#e)"><g transform="translate(-128.872 -273.286)" clip-path="url(#b)"><path d="M48.582-141.973h9.325v4.134H48.582Z" transform="translate(78.632 413.601)" fill="#dddbdb"/></g></g><g transform="translate(45.494 122.811)" clip-path="url(#g)"><g transform="translate(-129.058 -270.798)" clip-path="url(#b)"><path d="M49.142-149.476h9.07v4.091h-9.07Z" transform="translate(78.258 418.616)" fill="#dddbdb"/></g></g><g transform="translate(45.796 119.348)" clip-path="url(#i)"><g transform="translate(-129.36 -267.336)" clip-path="url(#b)"><path d="M50.053-159.916h9.2v4.318h-9.2Z" transform="translate(77.649 425.593)" fill="#dddbdb"/></g></g><g transform="translate(45.706 116.23)" clip-path="url(#k)"><g transform="translate(-129.27 -264.218)" clip-path="url(#b)"><path d="M49.782-169.318h9.074v4.035H49.782Z" transform="translate(77.83 431.877)" fill="#dddbdb"/></g></g><g transform="translate(45.627 113.119)" clip-path="url(#m)"><g transform="translate(-129.191 -261.107)" clip-path="url(#b)"><path d="M49.544-178.7h8.935v4.176H49.544Z" transform="translate(77.989 438.146)" fill="#dddbdb"/></g></g><g transform="translate(45.389 109.594)" clip-path="url(#o)"><g transform="translate(-128.952 -257.581)" clip-path="url(#b)"><path d="M48.824-189.329h9.208v4.322H48.824Z" transform="translate(78.47 445.251)" fill="#dddbdb"/></g></g><g transform="translate(45.571 106.092)" clip-path="url(#q)"><g transform="translate(-129.135 -254.08)" clip-path="url(#b)"><path d="M49.374-199.885h9.194v4.174H49.374Z" transform="translate(78.103 452.307)" fill="#dddbdb"/></g></g><path d="M14.346,22.39A86.123,86.123,0,0,1,0,10.345L.014.307A.306.306,0,0,1,.317,0L130.481.316a.305.305,0,0,1,.3.309l0,1.436a86.145,86.145,0,0,1-21.674,20.559Z" transform="translate(37.207 148.054)" fill="#f6da83"/><g transform="translate(52.984 148.074)" clip-path="url(#s)"><g transform="translate(-130.302 -296.062)" clip-path="url(#b)"><path d="M52.892-73.3h17.03v25.71H52.892Z" transform="translate(75.751 367.703)" fill="#6e6053"/></g></g><g transform="translate(69.822 148.115)" clip-path="url(#u)"><g transform="translate(-147.14 -296.103)" clip-path="url(#b)"><path d="M103.663-73.176h6.391v25.684h-6.391Z" transform="translate(41.818 367.62)" fill="#6e6053"/></g></g><g transform="translate(76.679 155.361)" clip-path="url(#w)"><g transform="translate(-153.996 -303.348)" clip-path="url(#b)"><path d="M124.338-51.329h11.078v11.238H124.338Z" transform="translate(28 353.019)" fill="#6e6053"/></g></g><g transform="translate(38.293 130.269)" clip-path="url(#y)"><g transform="translate(-121.857 -278.256)" clip-path="url(#b)"><path d="M27.43-126.987H161.538v21.665H27.43Z" transform="translate(92.769 403.585)" fill="#afa7a7"/></g></g><g transform="translate(54.929 135.416)" clip-path="url(#aa)"><g transform="translate(-138.493 -283.404)" clip-path="url(#b)"><path d="M77.591-111.466h7.436v11.133H77.591Z" transform="translate(59.244 393.212)" fill="#eee3e4"/></g></g><g transform="translate(60.164 136.183)" clip-path="url(#ac)"><g transform="translate(-143.727 -284.17)" clip-path="url(#b)"><path d="M93.374-109.156h6.642v9.627H93.374Z" transform="translate(48.695 391.668)" fill="#eee3e4"/></g></g><g transform="translate(45.355 130.286)" clip-path="url(#ae)"><g transform="translate(-128.919 -278.273)" clip-path="url(#b)"><path d="M48.723-126.937h3.934v21.35H48.723Z" transform="translate(78.538 403.552)" fill="#eee3e4"/></g></g><g transform="translate(48.135 130.292)" clip-path="url(#ag)"><g transform="translate(-131.698 -278.28)" clip-path="url(#b)"><path d="M57.1-126.917h3.934v21.35H57.1Z" transform="translate(72.936 403.538)" fill="#eee3e4"/></g></g><g transform="translate(49.522 103.65)" clip-path="url(#ai)"><g transform="translate(-133.085 -251.637)" clip-path="url(#b)"><path d="M61.286-207.251h115.44v30.037H61.286Z" transform="translate(70.141 457.23)" fill="#d36981"/></g></g><g transform="translate(60.786 103.677)" clip-path="url(#ak)"><g transform="translate(-144.349 -251.665)" clip-path="url(#b)"><path d="M95.25-207.168h18.745v29.807H95.25Z" transform="translate(47.441 457.174)" fill="#849196"/></g></g><g transform="translate(29.054 72.599)" clip-path="url(#am)"><g transform="translate(-112.618 -220.586)" clip-path="url(#b)"><path d="M-.428-300.877H23.815v35.743H-.428Z" transform="translate(111.388 519.805)" fill="#ebd6c4"/></g></g><g transform="translate(29.089 71.625)" clip-path="url(#ao)"><g transform="translate(-112.653 -219.613)" clip-path="url(#b)"><path d="M-.322-303.812H143.21v8.682H-.322Z" transform="translate(111.317 521.767)" fill="#d2b092"/></g></g><g transform="translate(28.517 72.544)" clip-path="url(#aq)"><g transform="translate(-112.081 -220.531)" clip-path="url(#b)"><path d="M-2.048-301.042H21.543v8.447H-2.048Z" transform="translate(112.471 519.915)" fill="#c1a085"/></g></g><g transform="translate(27.736 96.454)" clip-path="url(#as)"><g transform="translate(-111.3 -244.441)" clip-path="url(#b)"><path d="M-4.4-228.948h25.24v12.016H-4.4Z" transform="translate(114.044 471.731)" fill="#c1a085"/></g></g><g transform="translate(48.492 76.312)" clip-path="url(#au)"><g transform="translate(-132.056 -224.299)" clip-path="url(#b)"><path d="M58.183-289.681H184.437v32.321H58.183Z" transform="translate(72.215 512.322)" fill="#e7c5a2"/></g></g><g transform="translate(42.884 46.749)" clip-path="url(#aw)"><g transform="translate(-126.448 -194.736)" clip-path="url(#b)"><path d="M41.271-378.821H159.683v31.007H41.271Z" transform="translate(83.518 571.899)" fill="#5c84ac"/></g></g><g transform="translate(141.064 46.933)" clip-path="url(#ay)"><g transform="translate(-224.628 -194.921)" clip-path="url(#b)"><path d="M337.31-378.265h4.72v30.839h-4.72Z" transform="translate(-114.34 571.528)" fill="#e0d5bb"/></g></g><g transform="translate(146.589 46.947)" clip-path="url(#ba)"><g transform="translate(-230.153 -194.934)" clip-path="url(#b)"><path d="M353.969-378.225h4.72v30.839h-4.72Z" transform="translate(-125.474 571.501)" fill="#e0d5bb"/></g></g><g transform="translate(49.556 105.026)" clip-path="url(#bc)"><g transform="translate(-133.12 -253.013)" clip-path="url(#b)"><path d="M61.39-203.1H176.211v8.092H61.39Z" transform="translate(70.072 454.457)" fill="#bc5e73"/></g></g><g transform="translate(60.82 105.053)" clip-path="url(#be)"><g transform="translate(-144.384 -253.041)" clip-path="url(#b)"><path d="M95.353-203.019h18.709v4.949H95.353Z" transform="translate(47.372 454.401)" fill="#768185"/></g></g><g transform="translate(160.729 107.981)" clip-path="url(#bg)"><g transform="translate(-244.293 -255.968)" clip-path="url(#b)"><path d="M396.6-194.192h3.644v5.108H396.6Z" transform="translate(-153.969 448.502)" fill="#e2e2e2"/></g></g><g transform="translate(49.436 105.025)" clip-path="url(#bi)"><g transform="translate(-133 -253.013)" clip-path="url(#b)"><path d="M61.027-203.1h3.438v4H61.027Z" transform="translate(70.314 454.457)" fill="#c9cac9"/></g></g><g transform="translate(49.435 105.025)" clip-path="url(#bk)"><g transform="translate(-132.999 -253.013)" clip-path="url(#b)"><path d="M61.025-203.1h3.32v3.32h-3.32Z" transform="translate(70.316 454.457)" fill="#ac8f76"/></g></g><g transform="translate(49.435 105.025)" clip-path="url(#bm)"><g transform="translate(-132.999 -253.013)" clip-path="url(#b)"><path d="M61.025-203.1H175v3.585H61.025Z" transform="translate(70.316 454.457)" fill="#ceae91"/></g></g></svg>