<svg xmlns="http://www.w3.org/2000/svg" xmlns:xlink="http://www.w3.org/1999/xlink" width="198" height="198" viewBox="0 0 198 198"><defs><clipPath id="a"><path d="M139.621-212.284,1.05-212.571l.027-13,138.567.287-.023,13" transform="translate(-1.05 225.573)" fill="#aca4a4" clip-rule="evenodd"/></clipPath><clipPath id="b"><path d="M-1745,274.648h880.1V-487H-1745Z" transform="translate(1745 487)" fill="#aca4a4"/></clipPath><clipPath id="c"><path d="M5.665-225.55l-4.6,6.927-.012,6.066,5.089.01,8.627-12.985-9.1-.019" transform="translate(-1.05 225.55)" fill="none" clip-rule="evenodd"/></clipPath><clipPath id="d"><path d="M-1745,274.648h880.1V-487H-1745Z" transform="translate(1745 487)" fill="none"/></clipPath><clipPath id="e"><path d="M47.478-212.446l-9.1-.018L47-225.45l9.1.019-8.624,12.985" transform="translate(-38.38 225.45)" fill="none" clip-rule="evenodd"/></clipPath><clipPath id="g"><path d="M95.2-212.349l-9.1-.017,8.624-12.985,9.1.017L95.2-212.349" transform="translate(-86.1 225.351)" fill="none" clip-rule="evenodd"/></clipPath><clipPath id="i"><path d="M142.922-212.249l-9.1-.018,8.627-12.984,9.1.017-8.624,12.985" transform="translate(-133.82 225.251)" fill="none" clip-rule="evenodd"/></clipPath><clipPath id="k"><path d="M190.648-212.152l-9.1-.018,8.624-12.983,9.1.018-8.627,12.983" transform="translate(-181.55 225.152)" fill="none" clip-rule="evenodd"/></clipPath><clipPath id="m"><path d="M238.368-212.054l-9.1-.019,8.627-12.983,9.1.019-8.627,12.983" transform="translate(-229.27 225.056)" fill="none" clip-rule="evenodd"/></clipPath><clipPath id="o"><path d="M286.088-211.955l-9.1-.02,8.624-12.983,9.1.02-8.627,12.983" transform="translate(-276.99 224.957)" fill="none" clip-rule="evenodd"/></clipPath><clipPath id="q"><path d="M338.429-224.846l-5.085-.011-8.624,12.983,9.1.019,4.6-6.927.012-6.065" transform="translate(-324.72 224.857)" fill="none" clip-rule="evenodd"/></clipPath><clipPath id="s"><path d="M1.12-285.63l136.124-24.885L134.906-323.3,1.147-298.853,1.12-285.63" transform="translate(-1.12 323.304)" fill="#849196" clip-rule="evenodd"/></clipPath><clipPath id="t"><path d="M-1745,274.648h880.1V-487H-1745Z" transform="translate(1745 487)" fill="#849196"/></clipPath><clipPath id="u"><path d="M46.311-259.344l-8.951,1.637,6.119-14.336,8.951-1.635-6.119,14.335" transform="translate(-37.36 273.679)" fill="none" clip-rule="evenodd"/></clipPath><clipPath id="w"><path d="M93.258-267.93,84.31-266.3l6.119-14.336,8.951-1.637L93.258-267.93" transform="translate(-84.31 282.268)" fill="none" clip-rule="evenodd"/></clipPath><clipPath id="y"><path d="M140.2-276.509l-8.951,1.637,6.119-14.336,8.951-1.635L140.2-276.509" transform="translate(-131.25 290.843)" fill="none" clip-rule="evenodd"/></clipPath><clipPath id="aa"><path d="M187.145-285.093l-8.955,1.637,6.119-14.337,8.955-1.635-6.119,14.334" transform="translate(-178.19 299.427)" fill="none" clip-rule="evenodd"/></clipPath><clipPath id="ac"><path d="M234.091-293.672l-8.951,1.637,6.119-14.338,8.951-1.633-6.119,14.335" transform="translate(-225.14 308.007)" fill="none" clip-rule="evenodd"/></clipPath><clipPath id="ae"><path d="M281.038-302.255l-8.948,1.637,6.119-14.336,8.951-1.637-6.123,14.336" transform="translate(-272.09 316.591)" fill="none" clip-rule="evenodd"/></clipPath><clipPath id="ag"><path d="M330.154-323.3l-5,.915-6.119,14.336,8.951-1.637,3.264-7.647-1.092-5.967" transform="translate(-319.03 323.304)" fill="none" clip-rule="evenodd"/></clipPath><clipPath id="ai"><path d="M27.229-237.427,1.05-237.481,1.1-263.772l13.1-2.361,13.057,15.844-.027,12.862" transform="translate(-1.05 266.133)" fill="none" clip-rule="evenodd"/></clipPath><clipPath id="ak"><path d="M51.377-209.353a2.3,2.3,0,0,1-2.307,2.3,2.3,2.3,0,0,1-2.3-2.308,2.3,2.3,0,0,1,2.307-2.3,2.3,2.3,0,0,1,2.3,2.31" transform="translate(-46.77 211.663)" fill="none" clip-rule="evenodd"/></clipPath><clipPath id="am"><path d="M59.654-168.795l-.073,35.042-34.317-.072.073-35.04Zm1.188,35.045.073-35.042,46.6.1-.073,35.04Zm-35.6,9.671.015-8.791,118.1.241-.015,8.794Zm-.023,9.594.019-8.64,118.1.243-.015,8.641Zm118.14-19.094-34.656-.072.069-35.042,34.66.072ZM24.08-170.129l-.12,56.9,120.621.25.12-56.9-120.621-.25Z" transform="translate(-23.96 170.129)" fill="none" clip-rule="evenodd"/></clipPath></defs><ellipse cx="86" cy="85.5" rx="86" ry="85.5" transform="translate(13 14)" fill="#f6eaea"/><g fill="none" stroke="#d56f85" stroke-width="1" stroke-dasharray="2 2"><circle cx="99" cy="99" r="99" stroke="none"/><circle cx="99" cy="99" r="98.5" fill="none"/></g><g transform="translate(26.053 88.945) rotate(-11)" clip-path="url(#a)"><g transform="translate(-673.696 -100.869)" clip-path="url(#b)"><path d="M-3.95-230.573H138.5v17.147H-3.95Z" transform="translate(675.716 329.513)" fill="#aca4a4"/></g></g><g transform="translate(26.054 88.953) rotate(-11)" clip-path="url(#c)"><g transform="translate(-673.696 -100.878)" clip-path="url(#d)"><path d="M-3.95-230.55H13.625v16.862H-3.95Z" transform="translate(675.716 329.499)" fill="#fffefe"/></g></g><g transform="translate(40.201 86.243) rotate(-11)" clip-path="url(#e)"><g transform="translate(-688.099 -100.916)" clip-path="url(#d)"><path d="M33.38-230.45H54.96v16.862H33.38Z" transform="translate(652.79 329.437)" fill="#dfe8ea"/></g></g><g transform="translate(58.282 82.767) rotate(-11)" clip-path="url(#g)"><g transform="translate(-706.511 -100.955)" clip-path="url(#d)"><path d="M81.1-230.351h21.584v16.86H81.1Z" transform="translate(623.482 329.376)" fill="#dfe8ea"/></g></g><g transform="translate(76.363 79.292) rotate(-11)" clip-path="url(#i)"><g transform="translate(-724.924 -100.993)" clip-path="url(#d)"><path d="M128.82-230.251H150.4v16.86H128.82Z" transform="translate(594.174 329.315)" fill="#dfe8ea"/></g></g><g transform="translate(94.448 75.815) rotate(-11)" clip-path="url(#k)"><g transform="translate(-743.34 -101.031)" clip-path="url(#d)"><path d="M176.55-230.152h21.584v16.859H176.55Z" transform="translate(564.86 329.254)" fill="#dfe8ea"/></g></g><g transform="translate(112.529 72.338) rotate(-11)" clip-path="url(#m)"><g transform="translate(-761.752 -101.068)" clip-path="url(#d)"><path d="M224.27-230.056h21.584v16.86H224.27Z" transform="translate(535.553 329.195)" fill="#dfe8ea"/></g></g><g transform="translate(130.611 68.863) rotate(-11)" clip-path="url(#o)"><g transform="translate(-780.164 -101.107)" clip-path="url(#d)"><path d="M271.99-229.957h21.584V-213.1H271.99Z" transform="translate(506.245 329.134)" fill="#dfe8ea"/></g></g><g transform="translate(148.696 65.387) rotate(-11)" clip-path="url(#q)"><g transform="translate(-798.58 -101.145)" clip-path="url(#d)"><path d="M319.72-229.857h17.567V-213H319.72Z" transform="translate(476.931 329.073)" fill="#dfe8ea"/></g></g><g transform="translate(18.884 51.924) rotate(-11)" clip-path="url(#s)"><g transform="translate(-673.723 -63.16)" clip-path="url(#t)"><path d="M-3.88-328.3H136.1v41.532H-3.88Z" transform="translate(675.673 389.535)" fill="#849196"/></g></g><g transform="translate(36.264 68.051) rotate(-11)" clip-path="url(#u)"><g transform="translate(-687.705 -82.308)" clip-path="url(#d)"><path d="M32.36-278.679H51.289v19.83H32.36Z" transform="translate(653.416 359.058)" fill="#dfe8ea"/></g></g><g transform="translate(53.414 61.342) rotate(-11)" clip-path="url(#w)"><g transform="translate(-705.821 -78.994)" clip-path="url(#d)"><path d="M79.31-287.268H98.239v19.831H79.31Z" transform="translate(624.581 364.333)" fill="#dfe8ea"/></g></g><g transform="translate(70.561 54.638) rotate(-11)" clip-path="url(#y)"><g transform="translate(-723.932 -75.685)" clip-path="url(#d)"><path d="M126.25-295.843h18.929v19.83H126.25Z" transform="translate(595.753 369.599)" fill="#dfe8ea"/></g></g><g transform="translate(87.707 47.931) rotate(-11)" clip-path="url(#aa)"><g transform="translate(-742.043 -72.373)" clip-path="url(#d)"><path d="M173.19-304.427h18.933v19.83H173.19Z" transform="translate(566.924 374.871)" fill="#dfe8ea"/></g></g><g transform="translate(104.858 41.225) rotate(-11)" clip-path="url(#ac)"><g transform="translate(-760.158 -69.063)" clip-path="url(#d)"><path d="M220.14-313.007h18.929v19.83H220.14Z" transform="translate(538.089 380.14)" fill="#dfe8ea"/></g></g><g transform="translate(122.009 34.517) rotate(-11)" clip-path="url(#ae)"><g transform="translate(-778.274 -65.751)" clip-path="url(#d)"><path d="M267.09-321.591h18.929v19.831H267.09Z" transform="translate(509.254 385.412)" fill="#dfe8ea"/></g></g><g transform="translate(139.293 28.519) rotate(-11)" clip-path="url(#ag)"><g transform="translate(-796.385 -63.16)" clip-path="url(#d)"><path d="M314.03-328.3H330.1v19.109H314.03Z" transform="translate(480.426 389.535)" fill="#dfe8ea"/></g></g><g transform="translate(23.067 73.582) rotate(-11)" clip-path="url(#ai)"><g transform="translate(-673.696 -85.219)" clip-path="url(#d)"><path d="M-3.95-271.133H26.115v32.564H-3.95Z" transform="translate(675.716 354.423)" fill="#42478a"/></g></g><g transform="translate(44.393 90.847) rotate(-11)" clip-path="url(#ak)"><g transform="translate(-691.336 -106.236)" clip-path="url(#d)"><path d="M41.77-216.663h8.465v8.466H41.77Z" transform="translate(647.637 320.97)" fill="#fffefe"/></g></g><path d="M24.633,145.4,13.127,86.21,153.084,59,164.87,119.64A85.348,85.348,0,0,1,153.8,138.109L43.111,159.625A86.3,86.3,0,0,1,24.633,145.4Z" transform="translate(13 14)" fill="#d36981"/><g transform="translate(38.812 108.257) rotate(-11)" clip-path="url(#am)"><g transform="translate(-682.535 -122.261)" clip-path="url(#d)"><path d="M18.96-175.129h124.6v61.008H18.96Z" transform="translate(661.646 295.461)" fill="#fffefe"/></g></g></svg>