<svg xmlns="http://www.w3.org/2000/svg" xmlns:xlink="http://www.w3.org/1999/xlink" width="198" height="198" viewBox="0 0 198 198"><defs><clipPath id="a"><path d="M174.93-105.864l.994,1.053,15.916,16.9c-2.429.191-4.742,2.367-5.354,5.282-.738,3.493,1.1,6.858,4.134,7.5s6.068-1.669,6.806-5.164a6.683,6.683,0,0,0-1.606-6.065,1.156,1.156,0,0,0-.22-.32l-13.65-14.5,15.43-14.53,11.268,11.967c-2.426.191-4.747,2.372-5.36,5.288-.734,3.494,1.1,6.861,4.131,7.5s6.071-1.669,6.806-5.164a6.692,6.692,0,0,0-1.6-6.07,1.187,1.187,0,0,0-.214-.326l-18.3-19.431L193.124-123,174.93-105.864" transform="translate(-174.93 122.999)" fill="none" clip-rule="evenodd"/></clipPath><clipPath id="b"><path d="M-281,407.337H706.337V-580H-281Z" transform="translate(281 580)" fill="none"/></clipPath><clipPath id="c"><path d="M293.882-1.832H290.8a10.578,10.578,0,0,1-3.114,7.515A10.578,10.578,0,0,1,280.168,8.8H213.8a10.576,10.576,0,0,1-7.515-3.114,10.578,10.578,0,0,1-3.114-7.515V-68.2a10.576,10.576,0,0,1,3.114-7.515,10.575,10.575,0,0,1,7.515-3.114h66.369a10.578,10.578,0,0,1,7.515,3.114A10.575,10.575,0,0,1,290.8-68.2V-1.832h6.171V-68.2a16.8,16.8,0,0,0-16.8-16.8H213.8A16.8,16.8,0,0,0,197-68.2V-1.832a16.8,16.8,0,0,0,16.8,16.8h66.369a16.8,16.8,0,0,0,16.8-16.8h-3.085" transform="translate(-197 85)" fill="#afa7a7" clip-rule="evenodd"/></clipPath><clipPath id="d"><path d="M-281,407.337H706.337V-580H-281Z" transform="translate(281 580)" fill="#afa7a7"/></clipPath><clipPath id="e"><path d="M188.666-22.423a25,25,0,0,1,25.007-25.006,25,25,0,0,1,25.006,25.006A25.006,25.006,0,0,1,213.673,2.585a25.007,25.007,0,0,1-25.007-25.008" transform="translate(-188.666 47.429)" fill="none" clip-rule="evenodd"/></clipPath><clipPath id="g"><path d="M191.933-23.188a20.974,20.974,0,0,1,20.975-20.974,20.973,20.973,0,0,1,20.971,20.974A20.973,20.973,0,0,1,212.908-2.215a20.974,20.974,0,0,1-20.975-20.973" transform="translate(-191.933 44.162)" fill="none" clip-rule="evenodd"/></clipPath><clipPath id="i"><path d="M300.12-22.423a25.006,25.006,0,0,0-25.008-25.006A25.006,25.006,0,0,0,250.1-22.423,25.008,25.008,0,0,0,275.112,2.585,25.008,25.008,0,0,0,300.12-22.423" transform="translate(-250.105 47.429)" fill="none" clip-rule="evenodd"/></clipPath><clipPath id="k"><path d="M295.322-23.188a20.976,20.976,0,0,0-20.976-20.974,20.973,20.973,0,0,0-20.972,20.974A20.973,20.973,0,0,0,274.346-2.215a20.976,20.976,0,0,0,20.976-20.973" transform="translate(-253.374 44.162)" fill="none" clip-rule="evenodd"/></clipPath><clipPath id="m"><path d="M307.134-59.915c0,1.86-1.987,3.085-4.434,3.085H197.025c-2.454,0-4.437-1.226-4.437-3.085S194.571-63,197.025-63H302.7c2.447,0,4.434,1.23,4.434,3.085" transform="translate(-192.588 63)" fill="none" clip-rule="evenodd"/></clipPath><clipPath id="o"><path d="M228-40.892h25.918V-52H228Z" transform="translate(-228 52)" fill="none"/></clipPath><clipPath id="p"><path d="M235-32.829h9.873V-39H235Z" transform="translate(-235 39)" fill="none"/></clipPath><clipPath id="q"><path d="M235-22.127h9.873V-32H235Z" transform="translate(-235 32)" fill="none"/></clipPath><clipPath id="r"><path d="M235-14.361h9.873V-23H235Z" transform="translate(-235 23)" fill="none"/></clipPath><clipPath id="s"><path d="M235-6.595h9.873V-14H235Z" transform="translate(-235 14)" fill="none"/></clipPath><clipPath id="t"><path d="M275.112-.536A25.008,25.008,0,0,1,250.1-25.544a24.979,24.979,0,0,1,1.4-8.257,32.059,32.059,0,0,1,4.458-.3h0a20.885,20.885,0,0,0-1.822,8.561A20.973,20.973,0,0,0,275.112-4.57a20.986,20.986,0,0,0,19.723-13.818q1.664,1.164,3.383,2.428A25.016,25.016,0,0,1,275.112-.536" transform="translate(-250.105 34.105)" fill="none" clip-rule="evenodd"/></clipPath><clipPath id="v"><path d="M244.873-22.344H235v-.343a37.107,37.107,0,0,1,9.873-8.386v8.729" transform="translate(-235 31.073)" fill="none" clip-rule="evenodd"/></clipPath><clipPath id="x"><path d="M247.146-56.829h-13.73A10.763,10.763,0,0,1,228.354-63h24.73L251.9-61.189a2.294,2.294,0,0,1-.6.49,11.455,11.455,0,0,1-4.152,3.87m-48.238,0h-1.883c-2.454,0-4.437-1.226-4.437-3.085S194.571-63,197.025-63h1.454l.43,6.171" transform="translate(-192.588 63)" fill="none" clip-rule="evenodd"/></clipPath></defs><ellipse cx="86" cy="85.5" rx="86" ry="85.5" transform="translate(13 14)" fill="#f6eaea"/><g fill="none" stroke="#d56f85" stroke-width="1" stroke-dasharray="2 2"><circle cx="99" cy="99" r="99" stroke="none"/><circle cx="99" cy="99" r="98.5" fill="none"/></g><g transform="translate(151.54 11.967) rotate(71)" clip-path="url(#a)"><g transform="translate(-562.696 -564.017)" clip-path="url(#b)"><path d="M169.93-128h51.8v60.313h-51.8Z" transform="translate(386.595 685.845)" fill="#f3b439"/></g></g><g transform="translate(45.794 65.341)" clip-path="url(#c)"><g transform="translate(-589.934 -610.915)" clip-path="url(#d)"><path d="M192-90H304.31V22.31H192Z" transform="translate(391.763 694.744)" fill="#afa7a7"/></g></g><path d="M37.691,156.245A86.236,86.236,0,0,1,14.281,132.7V82.949c0-7.754,6.233-14.329,13.8-14.329H141.2c7.574,0,13.781,6.575,13.781,14.329v53.625a86.268,86.268,0,0,1-20.667,19.672Z" transform="translate(13 14)" fill="#f6da83"/><g transform="translate(35.508 111.71)" clip-path="url(#e)"><g transform="translate(-579.648 -657.284)" clip-path="url(#b)"><path d="M183.666-52.429H246.02V9.926H183.666Z" transform="translate(389.811 703.542)" fill="#fffefe"/></g></g><g transform="translate(39.54 115.742)" clip-path="url(#g)"><g transform="translate(-583.68 -661.316)" clip-path="url(#b)"><path d="M186.933-49.162H241.22V5.127H186.933Z" transform="translate(390.576 704.307)" fill="#67bfb9"/></g></g><g transform="translate(111.334 111.71)" clip-path="url(#i)"><g transform="translate(-655.474 -657.284)" clip-path="url(#b)"><path d="M245.105-52.429h62.356V9.926H245.105Z" transform="translate(404.198 703.542)" fill="#fffefe"/></g></g><g transform="translate(115.369 115.742)" clip-path="url(#k)"><g transform="translate(-659.509 -661.316)" clip-path="url(#b)"><path d="M248.374-49.162h54.29V5.127h-54.29Z" transform="translate(404.964 704.307)" fill="#67bfb9"/></g></g><g transform="translate(40.349 92.493)" clip-path="url(#m)"><g transform="translate(-584.489 -638.066)" clip-path="url(#b)"><path d="M187.588-68H314.476v18.513H187.588Z" transform="translate(390.73 699.896)" fill="#fffefe"/></g></g><g transform="translate(84.053 106.068)" clip-path="url(#o)"><path d="M223-57h38.259v23.449H223Z" transform="translate(-229.171 50.829)" fill="#394144"/></g><g transform="translate(92.692 122.113)" clip-path="url(#p)"><path d="M230-44h22.215v18.513H230Z" transform="translate(-236.171 37.829)" fill="#f3b439"/></g><g transform="translate(92.692 130.752)" clip-path="url(#q)"><path d="M230-37h22.215v22.215H230Z" transform="translate(-236.171 30.829)" fill="#f3b439"/></g><g transform="translate(92.692 141.859)" clip-path="url(#r)"><path d="M230-28h22.215V-7.019H230Z" transform="translate(-236.171 21.829)" fill="#f3b439"/></g><g transform="translate(92.692 152.967)" clip-path="url(#s)"><path d="M230-19h22.215V.747H230Z" transform="translate(-236.171 12.829)" fill="#f3b439"/></g><g transform="translate(111.334 128.154)" clip-path="url(#t)"><g transform="translate(-655.474 -673.728)" clip-path="url(#b)"><path d="M245.105-39.1H305.56V6.806H245.105Z" transform="translate(404.198 706.662)" fill="#fffefe"/></g></g><g transform="translate(92.692 131.896)" clip-path="url(#v)"><g transform="translate(-636.832 -677.47)" clip-path="url(#b)"><path d="M230-36.073h22.215V-15H230Z" transform="translate(400.661 707.372)" fill="#e98435"/></g></g><g transform="translate(40.349 92.493)" clip-path="url(#x)"><g transform="translate(-584.489 -638.066)" clip-path="url(#b)"><path d="M187.588-68h72.838v18.513H187.588Z" transform="translate(390.73 699.896)" fill="#fffefe"/></g></g></svg>