<svg xmlns="http://www.w3.org/2000/svg" width="318" height="447.218" viewBox="0 0 318 447.218"><path d="M-1268.8-101v-55.852a46.212,46.212,0,0,1,15.049-10.243,45.582,45.582,0,0,1,36.049-.4,45.618,45.618,0,0,1,25.941,25.031,45.629,45.629,0,0,1,.4,36.051,52.331,52.331,0,0,1-2.51,5.411Zm76.7-79.237a21.886,21.886,0,0,1-5.893-1.265q-.3-.109-.6-.229l-26.471-10.52a21.854,21.854,0,0,1-12.074-11.731,21.849,21.849,0,0,1-.243-16.834l39.082-98.344a22.02,22.02,0,0,1,28.565-12.318l11.29,4.488c42.213,17.261,76.161,24.127,100.96,20.417,23.55-3.529,42.315-22.487,55.774-56.347,9.763-24.568,10.4-46.652,1.887-65.637-8.552-19.046-25.6-33.753-50.651-43.712-25.134-9.988-47.662-11.336-66.952-4.011-15.934,6.055-28.238,17.541-37.61,35.114a22,22,0,0,1-27.541,10.125l-26.095-10.372a22.04,22.04,0,0,1-12.427-12.6,22.049,22.049,0,0,1,.872-17.681c16.293-32.609,40.813-55.256,72.89-67.313,36.9-13.864,77.821-12.067,121.635,5.344,32.053,12.738,57.132,30.45,74.9,52.843v179.091q-17.354,28.9-41.6,44.041l0,0-.291.18-.264.163-.027.016a103.7,103.7,0,0,1-24.178,10.886c-33.466,10.184-75.71,6.077-125.557-12.2a1.586,1.586,0,0,0-2,.9l-25.31,63.688a22.034,22.034,0,0,1-20.471,13.872Q-1191.293-180.178-1192.092-180.237Z" transform="translate(1268.797 548.218)" fill="rgba(252,252,252,0.17)"/></svg>