<svg xmlns="http://www.w3.org/2000/svg" xmlns:xlink="http://www.w3.org/1999/xlink" width="641.834" height="235.887" viewBox="0 0 641.834 235.887"><defs><clipPath id="a"><path d="M274.4-289.659a18.271,18.271,0,0,0-13.6-4.881,18.268,18.268,0,0,0-13.026,6.254,18.251,18.251,0,0,0-4.881,13.6,18.269,18.269,0,0,0,6.254,13.025,19.49,19.49,0,0,0,4.941,3.286,18.315,18.315,0,0,0,8.659,1.594,18.269,18.269,0,0,0,13.025-6.254,18.284,18.284,0,0,0,4.881-13.6,18.284,18.284,0,0,0-6.254-13.024" transform="translate(-242.866 294.568)" fill="none" clip-rule="evenodd"/></clipPath><clipPath id="b"><path d="M-46-393.01H446.237V-751H-46Z" transform="translate(46 751)" fill="none"/></clipPath><clipPath id="c"><path d="M285-274.039a18.283,18.283,0,0,0-6.254-13.024,19.851,19.851,0,0,0-3.973-2.805,18.135,18.135,0,0,1,3.5,9.984,18.285,18.285,0,0,1-4.881,13.6,18.266,18.266,0,0,1-13.025,6.253,18.31,18.31,0,0,1-8.659-1.594c-.327-.15-.65-.313-.97-.484a20.159,20.159,0,0,0,2.76,3.042,19.491,19.491,0,0,0,4.941,3.286,18.316,18.316,0,0,0,8.659,1.594,18.269,18.269,0,0,0,13.025-6.254,18.285,18.285,0,0,0,4.881-13.6" transform="translate(-250.737 289.868)" fill="none" clip-rule="evenodd"/></clipPath><clipPath id="e"><path d="M457.12-511.994c-1.424-15.606-9.263-29.937-23.3-42.6s-29.156-19.041-44.952-18.981c-13.733.054-26.107,5.14-36.778,15.119a8.84,8.84,0,0,0-2.8,6.521,8.839,8.839,0,0,0,2.911,6.469l8.357,7.537a8.815,8.815,0,0,0,11.76.041c5.973-5.295,12.2-7.893,19.03-7.944,8.269-.061,16.544,3.589,24.593,10.849,8.025,7.238,12.375,15.141,12.931,23.49.548,8.321-2.772,16.529-9.868,24.4-9.781,10.845-19.476,15.348-28.817,13.387-9.835-2.067-21.631-9.382-35.081-21.758l-3.616-3.262a8.825,8.825,0,0,0-12.451.642l-28.406,31.494a8.758,8.758,0,0,0-2.258,6.358,8.758,8.758,0,0,0,2.9,6.093l8.477,7.645a8.789,8.789,0,0,0,2.232,1.469,8.833,8.833,0,0,0,10.218-2.11l18.4-20.4a.635.635,0,0,1,.878-.061c16.177,13.823,31.474,21.26,45.469,22.1,14.883.9,29.153-6.1,42.412-20.8,13.207-14.643,19.181-30.019,17.756-45.7" transform="translate(-308.369 573.572)" fill="none" clip-rule="evenodd"/></clipPath><clipPath id="g"><path d="M532.618-508.624c-1.424-15.606-9.263-29.937-23.3-42.6-8.687-7.836-17.8-13.265-27.221-16.251a85.375,85.375,0,0,1,13.039,9.765c14.035,12.659,21.873,26.99,23.3,42.6,1.424,15.682-4.55,31.059-17.757,45.7-13.259,14.7-27.529,21.7-42.412,20.8a52.29,52.29,0,0,1-13.253-2.64c9.578,5.543,18.757,8.6,27.434,9.127,14.883.9,29.153-6.1,42.412-20.8,13.207-14.643,19.181-30.019,17.756-45.7" transform="translate(-445.016 567.471)" fill="none" clip-rule="evenodd"/></clipPath><clipPath id="i"><path d="M723.659-387.79a12.924,12.924,0,0,0-9.906,2.514,12.918,12.918,0,0,0-5.167,8.817,12.91,12.91,0,0,0,2.514,9.906,12.92,12.92,0,0,0,8.817,5.167,13.773,13.773,0,0,0,4.2-.026,12.947,12.947,0,0,0,5.709-2.488,12.921,12.921,0,0,0,5.166-8.817,12.931,12.931,0,0,0-2.514-9.907,12.931,12.931,0,0,0-8.817-5.166" transform="translate(-708.438 387.938)" fill="none" clip-rule="evenodd"/></clipPath><clipPath id="k"><path d="M743.165-382.622a12.931,12.931,0,0,0-8.816-5.166,14.058,14.058,0,0,0-3.44-.075,12.822,12.822,0,0,1,6,4.474,12.934,12.934,0,0,1,2.515,9.906,12.925,12.925,0,0,1-5.167,8.817,12.944,12.944,0,0,1-5.709,2.488c-.251.042-.505.073-.76.1a14.268,14.268,0,0,0,2.822.693,13.758,13.758,0,0,0,4.2-.026,12.951,12.951,0,0,0,5.709-2.488,12.922,12.922,0,0,0,5.166-8.817,12.931,12.931,0,0,0-2.514-9.907" transform="translate(-727.786 387.935)" fill="none" clip-rule="evenodd"/></clipPath></defs><g transform="translate(0 34.634)"><g transform="translate(96.522)"><path d="M88.889,1.958a53.157,53.157,0,0,1-1.25,11.709A45.72,45.72,0,0,1,84.01,24,40.478,40.478,0,0,1,78.216,32.7a39.232,39.232,0,0,1-7.684,6.77L92.975,63.677H83.217a11.569,11.569,0,0,1-3.9-.61,7.784,7.784,0,0,1-3.11-2.135L60.835,44.222a51.318,51.318,0,0,1-7.227,1.708,48.787,48.787,0,0,1-7.837.61,45.735,45.735,0,0,1-17.564-3.263,39.316,39.316,0,0,1-13.6-9.179A41.27,41.27,0,0,1,5.824,19.98,50.445,50.445,0,0,1,2.714,1.958a50.445,50.445,0,0,1,3.11-18.022,41.6,41.6,0,0,1,8.782-14.149,39.465,39.465,0,0,1,13.6-9.24,45.363,45.363,0,0,1,17.564-3.293,45.591,45.591,0,0,1,17.595,3.293A39.4,39.4,0,0,1,77-30.213a41.6,41.6,0,0,1,8.782,14.149A50.446,50.446,0,0,1,88.889,1.958Zm-12.136,0a44.415,44.415,0,0,0-2.2-14.454,30.572,30.572,0,0,0-6.221-10.825,26.994,26.994,0,0,0-9.758-6.8A33.126,33.126,0,0,0,45.771-32.5a32.96,32.96,0,0,0-12.746,2.378,27.285,27.285,0,0,0-9.788,6.8A30.323,30.323,0,0,0,16.985-12.5a44.414,44.414,0,0,0-2.2,14.454,44.139,44.139,0,0,0,2.2,14.423,30.362,30.362,0,0,0,6.251,10.795,26.961,26.961,0,0,0,9.788,6.77,33.336,33.336,0,0,0,12.746,2.348,33.5,33.5,0,0,0,12.807-2.348,26.675,26.675,0,0,0,9.758-6.77,30.612,30.612,0,0,0,6.221-10.795A44.139,44.139,0,0,0,76.752,1.958ZM139.02,36.233a24.4,24.4,0,0,0,9.7-1.83,20.338,20.338,0,0,0,7.227-5.123,22.405,22.405,0,0,0,4.513-7.867,31.1,31.1,0,0,0,1.555-10.063V-41.77h11.77V11.35a39.86,39.86,0,0,1-2.409,14.027,32.59,32.59,0,0,1-6.892,11.191,31.512,31.512,0,0,1-10.947,7.41,40.6,40.6,0,0,1-29.03,0,31.828,31.828,0,0,1-10.978-7.41,32.353,32.353,0,0,1-6.922-11.191A39.86,39.86,0,0,1,104.2,11.35V-41.77h11.77V11.289a31.1,31.1,0,0,0,1.555,10.063,22.406,22.406,0,0,0,4.513,7.867,20.6,20.6,0,0,0,7.257,5.153A24.273,24.273,0,0,0,139.02,36.233Zm69.1,9.392H196.287V-41.77h11.831ZM292.4-41.77v4.391a6.685,6.685,0,0,1-1.281,3.9l-49.46,69.464h49.887v9.636H226.17V40.99a5.943,5.943,0,0,1,1.159-3.476L276.85-32.134H228.488V-41.77Z" transform="translate(-2.714 42.745)" fill="#3a3386"/></g><g transform="translate(-11.088 96.839)"><path d="M48.129,14.033a22.689,22.689,0,0,1,1.494,3.08q.64,1.616,1.25,3.263.61-1.708,1.281-3.263t1.525-3.141l29.579-53.73A3.51,3.51,0,0,1,84.9-41.465a7.583,7.583,0,0,1,2.439-.3h8.721V45.625H85.7V-18.595q0-1.281.061-2.744t.183-2.988L56,30.317a4.7,4.7,0,0,1-4.269,2.744H50.019a4.7,4.7,0,0,1-4.269-2.744L15.135-24.51q.183,1.586.274,3.11t.091,2.805V45.625H5.133V-41.77h8.721a7.583,7.583,0,0,1,2.439.3,3.51,3.51,0,0,1,1.647,1.708ZM189.253,45.625H180.1a3.936,3.936,0,0,1-2.561-.793,4.876,4.876,0,0,1-1.464-2.013l-8.172-21.1H128.693l-8.172,21.1a4.765,4.765,0,0,1-1.464,1.952,3.9,3.9,0,0,1-2.561.854h-9.148L142.293-41.77h12.014ZM131.986,13.18h32.628L150.892-22.376a66.45,66.45,0,0,1-2.622-8.233q-.671,2.5-1.311,4.6t-1.25,3.69Zm113.07-41.288a4.728,4.728,0,0,1-1.159,1.372,2.574,2.574,0,0,1-1.586.457,4.223,4.223,0,0,1-2.409-1.037,38.393,38.393,0,0,0-3.476-2.287,28.209,28.209,0,0,0-5.062-2.287,21.781,21.781,0,0,0-7.166-1.037,21.19,21.19,0,0,0-7.014,1.067,14.911,14.911,0,0,0-5.092,2.9,11.891,11.891,0,0,0-3.08,4.3,13.647,13.647,0,0,0-1.037,5.336,9.862,9.862,0,0,0,1.8,6.068,15.5,15.5,0,0,0,4.757,4.117,36.443,36.443,0,0,0,6.709,2.958q3.751,1.25,7.684,2.592t7.684,3.019a27.028,27.028,0,0,1,6.709,4.239,19.323,19.323,0,0,1,4.757,6.282,20.907,20.907,0,0,1,1.8,9.148,29.5,29.5,0,0,1-1.952,10.764,24.816,24.816,0,0,1-5.7,8.752,26.676,26.676,0,0,1-9.209,5.855A33.873,33.873,0,0,1,220.6,46.6a37.9,37.9,0,0,1-15.46-3.08A36.265,36.265,0,0,1,193.217,35.2l3.415-5.611a4.49,4.49,0,0,1,1.189-1.128A2.787,2.787,0,0,1,199.376,28a4.852,4.852,0,0,1,2.927,1.372,48.776,48.776,0,0,0,4.117,3.019,31.444,31.444,0,0,0,5.977,3.019,23.587,23.587,0,0,0,8.569,1.372,22.531,22.531,0,0,0,7.5-1.159,15.932,15.932,0,0,0,5.58-3.263,14.136,14.136,0,0,0,3.507-5.031,16.814,16.814,0,0,0,1.22-6.526,10.95,10.95,0,0,0-1.8-6.5,14.914,14.914,0,0,0-4.726-4.239,33.039,33.039,0,0,0-6.678-2.9l-7.684-2.439a77.49,77.49,0,0,1-7.684-2.9,24.974,24.974,0,0,1-6.678-4.269A19.616,19.616,0,0,1,198.8-8.989a23.351,23.351,0,0,1-1.8-9.727,23.148,23.148,0,0,1,1.8-8.965,23.107,23.107,0,0,1,5.214-7.684,25.272,25.272,0,0,1,8.447-5.367,30.941,30.941,0,0,1,11.557-2.013,36.993,36.993,0,0,1,13.356,2.317,30.758,30.758,0,0,1,10.551,6.709Zm79.4-13.661v9.941H296.224V45.625H284.392V-31.829H256.033V-41.77Zm66.293,0v9.636H348.794V-3.1h33.97v9.27h-33.97V35.989h41.959v9.636H336.9V-41.77ZM420.759,9.154v36.47h-11.77V-41.77h24.7a53.969,53.969,0,0,1,14.332,1.677,27.352,27.352,0,0,1,9.971,4.848,19.414,19.414,0,0,1,5.824,7.654,25.58,25.58,0,0,1,1.891,10.032,25.15,25.15,0,0,1-1.464,8.66A22.873,22.873,0,0,1,460-1.671a25.36,25.36,0,0,1-6.77,5.458A33.513,33.513,0,0,1,444.178,7.2a12.5,12.5,0,0,1,3.9,3.72l25.493,34.7h-10.49a5.173,5.173,0,0,1-4.757-2.5L435.64,11.9a6.608,6.608,0,0,0-2.257-2.1,8.137,8.137,0,0,0-3.659-.64Zm0-8.6h12.38a30.141,30.141,0,0,0,9.118-1.25,18.552,18.552,0,0,0,6.587-3.537,14.672,14.672,0,0,0,3.995-5.458A17.824,17.824,0,0,0,454.18-16.7q0-7.806-5.153-11.77t-15.338-3.964H420.759Z" transform="translate(5.955 45.745)" fill="#3a3386"/></g></g><g transform="translate(284.612 106.049) rotate(-31)"><g transform="translate(108.348 178.761)" clip-path="url(#a)"><g transform="translate(-129.264 -204.248)" clip-path="url(#b)"><path d="M237.866-299.567h42.289v42.289H237.866Z" transform="translate(-110.839 501.578)" fill="#d56f85"/></g></g><g transform="translate(111.87 180.864)" clip-path="url(#c)"><g transform="translate(-132.786 -206.351)" clip-path="url(#b)"><path d="M245.737-294.868H284.5v40.186H245.737Z" transform="translate(-115.188 498.981)" fill="#c85876"/></g></g><g transform="translate(137.66 53.91)" clip-path="url(#e)"><g transform="translate(-158.576 -79.397)" clip-path="url(#b)"><path d="M303.369-578.572H456.8v133.816H303.369Z" transform="translate(-147.031 655.731)" fill="#d56f85"/></g></g><g transform="translate(198.807 56.64)" clip-path="url(#g)"><g transform="translate(-219.724 -82.127)" clip-path="url(#b)"><path d="M440.016-572.471H532.3v129.9H440.016Z" transform="translate(-222.53 652.361)" fill="#c85876"/></g></g></g><g transform="translate(-33.94 -136.979)"><g transform="translate(316.686 136.979)" clip-path="url(#i)"><g transform="translate(-337.602 -162.466)" clip-path="url(#b)"><path d="M703.438-392.938h31.175v31.174H703.438Z" transform="translate(-368.073 553.167)" fill="#d56f85"/></g></g><g transform="translate(325.344 136.981)" clip-path="url(#k)"><g transform="translate(-346.26 -162.467)" clip-path="url(#b)"><path d="M722.786-392.935H745.3v31.173H722.786Z" transform="translate(-378.763 553.165)" fill="#c85876"/></g></g></g></svg>