<svg xmlns="http://www.w3.org/2000/svg" xmlns:xlink="http://www.w3.org/1999/xlink" width="489.454" height="149.992" viewBox="0 0 489.454 149.992"><defs><clipPath id="a"><path d="M213.927-83.992c-1.292,0-2.591-.05-3.9-.173-5.018-.468-10.1-.7-15.1-1.371C183.466-87.07,172-87.16,160.459-87.16c-4.583,0-9.166-.043-13.748-.043-6.672,0-13.341.091-20,.536-10.389.7-20.8.806-31.2.806q-2.352,0-4.7-.006h-.3c-5.761,0-11.5.355-17.253.606-5.779.252-11.4.666-17.145.666q-.776,0-1.557-.011c-5.741-.079-14.482-1.751-18.578-6.014-2.432-2.533-2.1-8.626.333-11.068a12.019,12.019,0,0,1,4.18-2.411c3.991-1.448,8.052-1.452,12.222-1.482h.152a31.4,31.4,0,0,1,8.629,1.386,71.754,71.754,0,0,0,7.625,1.447,37.512,37.512,0,0,0,6.532.552,39.956,39.956,0,0,0,4.235-.223c3.705-.4,7.437-.583,11.153-.9,4.615-.39,9.13-1.234,13.729-1.687,2.3-.227,4.551-.788,6.848-1.044a169.781,169.781,0,0,1,18.3-.842l1.482,0c2.906,0,5.812.022,8.716.022,2.362,0,4.722-.007,7.082-.007,8.077,0,16.148.083,24.2.815,2.5.227,4.976.09,7.438.63a42.745,42.745,0,0,0,7.5,1.134c2.168.083,4.341.11,6.518.11,3.868,0,7.743-.086,11.6-.1.386,0,.924,0,1.591,0,8.632,0,38.7.4,36.544,8.421-.829,3.083-5.647,7.1-8.351,8.388a31.7,31.7,0,0,1-10.907,2.923c-3.168.274-6.257.569-9.385.569" transform="translate(-34.3 106.892)" fill="none" clip-rule="evenodd"/></clipPath><clipPath id="b"><path d="M-46-577.836H192.1V-751H-46Z" transform="translate(46 751)" fill="none"/></clipPath><clipPath id="c"><path d="M899.694-299.2l1,6.907-2.015,38.955-3.379-.709L889.7-298.333l10-.868" transform="translate(-889.698 299.201)" fill="none" clip-rule="evenodd"/></clipPath><clipPath id="e"><path d="M856.829-305.992l-.653,25.825,6.559,22.293,3.823-1.422-3.22-19.88,2.956-27.036-9.466.22" transform="translate(-856.176 306.212)" fill="none" clip-rule="evenodd"/></clipPath><clipPath id="g"><path d="M884.4-99.107l-4.577,2.1,1.536,3.2-2.4,1.512s-.226,1.333.58,1.9,6.029-3.824,6.029-3.824L884.4-99.107" transform="translate(-878.93 99.107)" fill="none" clip-rule="evenodd"/></clipPath><clipPath id="i"><path d="M909.619-95.61l-4.965.838.653,3.49-2.711.837s-.564,1.228.068,1.981,6.814-2.129,6.814-2.129l.14-5.017" transform="translate(-902.365 95.61)" fill="none" clip-rule="evenodd"/></clipPath><clipPath id="k"><path d="M890.112-513.413a13.577,13.577,0,0,0,1.505,3.267,23.089,23.089,0,0,1,.909-6.245.608.608,0,0,0,.008-.469.568.568,0,0,0-.381-.217c-2.61-.631-2.658,1.661-2.041,3.664" transform="translate(-889.786 517.183)" fill="none" clip-rule="evenodd"/></clipPath><clipPath id="m"><path d="M895.734-522.565a4.028,4.028,0,0,0,1.624,2.379,2.875,2.875,0,0,0,2.986-.174c2.614-1.581,7.145-10.3.331-12.443-6.187-1.944-6.07,6.634-4.94,10.237" transform="translate(-895.133 533.086)" fill="none" clip-rule="evenodd"/></clipPath><clipPath id="o"><path d="M922.781-521.053c.407.6,1.333.465,1.99.155a7.068,7.068,0,0,0,3.826-7.4c-.436-2.46-3.477-4.37-4.174-1.352-.247,1.07.372,2.576.193,3.765a17.29,17.29,0,0,1-1.834,4.838" transform="translate(-922.781 531.203)" fill="none" clip-rule="evenodd"/></clipPath><clipPath id="q"><path d="M865.519-549.122c-3.1,1.716-4.49,5.495-7.327,7.621a10.518,10.518,0,0,0,8.184.2c2.554-1.021,8.611-1.64,7.819-5.18-.806-3.6-5.957-4.148-8.676-2.644" transform="translate(-858.192 549.906)" fill="none" clip-rule="evenodd"/></clipPath><clipPath id="s"><path d="M872.724-463.894c1.776,3.084,1.769,6.576,1.523,9.917-.555,7.563.164,16.331-2.442,23.56-4.922,0-14.357-2.261-19.259-2.765-.955-6.575-.4-10.419.14-17.864.266-3.671.836-8.6,2.135-12.093,1.064-2.863,3.9-6.56,8.18-6.442a12.6,12.6,0,0,1,9.724,5.687" transform="translate(-852.026 469.584)" fill="none" clip-rule="evenodd"/></clipPath><clipPath id="u"><path d="M903.918-478.873a1.372,1.372,0,0,1-1.529-.4c-.458-.443-.317-.588-.22-1.24.143-.962.4-1.92.6-2.873l2.65.551s-.533,2.581-.573,2.757a1.7,1.7,0,0,1-.926,1.21" transform="translate(-902.07 483.39)" fill="none" clip-rule="evenodd"/></clipPath><clipPath id="w"><path d="M767.553-438.274l-2.07-2.037-3.263.077-.372,1.655,4.931,2.13.774-1.825" transform="translate(-761.848 440.311)" fill="none" clip-rule="evenodd"/></clipPath><clipPath id="y"><path d="M802.4-467.045l-2.356-2.128-12.691,10.11-9.123-3.2-2.933,3.74,12.209,7.159,12.906-8.27,1.988-7.409" transform="translate(-775.299 469.173)" fill="none" clip-rule="evenodd"/></clipPath><clipPath id="aa"><path d="M150.794-88.138l3.378,1.857-.293,1.586-6-.824L148.2-87.8l2.6-.335" transform="translate(-147.876 88.138)" fill="none" clip-rule="evenodd"/></clipPath><clipPath id="ac"><path d="M80.209-80.2l-2.35-.028-.574,1.989.059.017-.015,0,3.913,2.25,1.849.181.207-2.113-.5-.359L80.209-80.2" transform="translate(-77.286 80.233)" fill="none" clip-rule="evenodd"/></clipPath><clipPath id="ae"><path d="M72.227-272.4c.377-.04,1.407,13.48,1.407,13.48l-7.313,24.569-4.217-.83,2.569-24.531s-8.927-10.294-6.356-17.983c3.884,1.883,13.91,5.294,13.91,5.294" transform="translate(-57.852 277.698)" fill="none" clip-rule="evenodd"/></clipPath><clipPath id="ag"><path d="M131.517-252.71l.853,12.054-2.353,23.992-4.341-.221s-1.046-22.724-1.476-23.188-4.126-12.387-4.126-12.387l11.442-.25" transform="translate(-120.075 252.71)" fill="none" clip-rule="evenodd"/></clipPath><clipPath id="ai"><path d="M75.274-383.836c-13.785-.253-14.8-7.209-17.832-7.967s-1.453-4.373-1.453-4.373.575-1.613.821-2.456c1.77-6.069,7.086-13.86,7.088-13.863a52.262,52.262,0,0,1,7.525-8.645,25.339,25.339,0,0,1,14-5.94c10.425,3.26,6.746,8.161,6.865,9.451-3.429,3.143-5.913,7.852-7.745,12.908a30.16,30.16,0,0,0-1.17,12.918c.228,1.8.492,3.362.754,4.722.051,1.775-1.656,3.36-8.848,3.246" transform="translate(-55.576 427.08)" fill="none" clip-rule="evenodd"/></clipPath><clipPath id="ak"><path d="M120.362-423.32a2.826,2.826,0,0,1,3.757.939c1.745,2.684-8.117,14.788-7.883,40.674-2.584.523-9.244,1.773-16.113-1.469,1.56-7.691,8.295-30.885,20.238-40.145" transform="translate(-100.124 423.684)" fill="none" clip-rule="evenodd"/></clipPath><clipPath id="am"><path d="M212.375-465.8a4.725,4.725,0,0,1,1.779,4.374c-.194.734-.724,1.226-.9,2.021-.353,1.565-3.074,2.717-1.93,4.533a4.759,4.759,0,0,0,2.781,1.658.81.81,0,0,0,.393.055.569.569,0,0,0,.4-.475,2.308,2.308,0,0,0-.024-.658c-.24-2.291,1.311-4.585,1.885-6.75s.544-4.628-.954-6.423c-1.278.118-1.795-.128-2.615.859l-.817.807" transform="translate(-211.045 467.463)" fill="none" clip-rule="evenodd"/></clipPath><clipPath id="ao"><path d="M189.745-457.735a4.826,4.826,0,0,0,3.97-1.9A9.667,9.667,0,0,0,195.5-463.8c1.05-4.966-5.031-6.572-8.237-3.534-2.794,2.647-1.942,9.247,2.479,9.595" transform="translate(-185.656 468.869)" fill="none" clip-rule="evenodd"/></clipPath><clipPath id="aq"><path d="M130.205-471.125a4.3,4.3,0,0,0,2.339-.666c1.171-.845,1.861-2.749,2.58-3.955.757-1.271,1.623-2.634,3.021-3.12a3.5,3.5,0,0,1,2.581.233c.587.235.517.465,1.142.359a2.732,2.732,0,0,0,1.365-1.044,2.626,2.626,0,0,0,.237-2.255,3.681,3.681,0,0,0-2.11-2.405,8.24,8.24,0,0,0-10.192,2.639c-1.264,1.568-1.717,3.715-2.987,5.2-.784.918-1.76,1.339-2.51,2.352-1.944,2.63-5.136,5.7-6.284,8.778a.461.461,0,0,0-.029.354c.107.223.441.146.663.036l3.883-1.938a6.112,6.112,0,0,0,1.443-.9c1.043-.956,1.4-2.607,2.67-3.238a5.691,5.691,0,0,1,2.19-.435" transform="translate(-119.331 484.767)" fill="none" clip-rule="evenodd"/></clipPath><clipPath id="as"><path d="M97.415-450.492l-10.4-2.44-2.781-13.826,3.454.3,2.666,9.029,13.486.385.771,1.028-7.192,5.523" transform="translate(-84.231 466.758)" fill="none" clip-rule="evenodd"/></clipPath><clipPath id="au"><path d="M93.6-491.918l-.34-3.625-2.568-1.964-.151,1.057.906.906a3.234,3.234,0,0,0,.868,1.586,12.14,12.14,0,0,1-.566,1.888l1.851.151" transform="translate(-90.538 497.507)" fill="none" clip-rule="evenodd"/></clipPath><clipPath id="aw"><path d="M375.669-93.46l2.981,1.911,1.034,1.519a11.23,11.23,0,0,1-1.656.679,50.161,50.161,0,0,1-5.32-.356l-.128-2.766,3.088-.987" transform="translate(-372.581 93.46)" fill="none" clip-rule="evenodd"/></clipPath><clipPath id="ay"><path d="M302.476-86.231l1.473,1.652s1.2,2.239.6,2.2-3.867.141-4.087-.234-1.954-1.679-2.181-1.934a8.132,8.132,0,0,1,0-2.355l4.192.666" transform="translate(-298.18 86.897)" fill="none" clip-rule="evenodd"/></clipPath><clipPath id="ba"><path d="M303.143-308.073l-3.7,22.506-4.722,21.437-4.207-.241L291.322-287s-3.032-20.794-3.043-26.945l14.863,5.868" transform="translate(-288.28 313.941)" fill="none" clip-rule="evenodd"/></clipPath><clipPath id="bc"><path d="M357.577-316.152l-1.694,41.539-4.33.2-2.3-21.106L345.9-314.144l8.948-11.524,2.73,9.516" transform="translate(-345.899 325.668)" fill="none" clip-rule="evenodd"/></clipPath><clipPath id="be"><path d="M303.936-455.529c-2.27-11.047.612-16.373-4.356-19.443,0,0-8.094-2.224-13.25,1.477-.072.051-.142.1-.213.156l-1.874,3.895L282.82-451.97s-3.978,22.941-1.867,23.126c2.392.21,13.374-4.908,15.459-4.787s8.464,1.263,14.486-.786c5.162-1.757-4.693-10.065-6.963-21.112" transform="translate(-280.336 475.635)" fill="none" clip-rule="evenodd"/></clipPath><clipPath id="bg"><path d="M336.581-474.146l-1.574.059-.16,1.585,5.785,16.177,1.3-7.01-1.416-10.181-3.93-.629" transform="translate(-334.846 474.146)" fill="none" clip-rule="evenodd"/></clipPath><clipPath id="bi"><path d="M356.756-363.1l-2.229,17.613,4.7.663,3.25-.253-4.111-15.281-1.61-2.743" transform="translate(-354.527 363.097)" fill="none" clip-rule="evenodd"/></clipPath><clipPath id="bk"><path d="M331.361-512.038l-3.237.133a16.192,16.192,0,0,1-.186-2.575c-.931-.187-2.022-.51-2.307-1.416a2.677,2.677,0,0,1-.072-.89c.038-1.236-.308-2.489.115-3.707.14-.4.03-.868.206-1.257a2.743,2.743,0,0,1,1.758-1.3,6.675,6.675,0,0,1,5.536.55,2.924,2.924,0,0,1,1.072,1.065,3.965,3.965,0,0,1,.192,2.312l-.254,2.161a2.714,2.714,0,0,1-1,2.188c-.386.217-.876.238-1.212.526-.594.507-.37,1.465-.611,2.208" transform="translate(-325.461 523.401)" fill="none" clip-rule="evenodd"/></clipPath><clipPath id="bm"><path d="M319.094-550.684a3.179,3.179,0,0,1-.746-.138c-.808-.273-1.411-.907-2.265-1.155a7.6,7.6,0,0,0-5.4.6c-1.516.795-3.641,1.231-4.973,2.239a4.307,4.307,0,0,0-1.258,1.646,6.488,6.488,0,0,0,.94,6.8,9.255,9.255,0,0,0,1.177,1.12,6.954,6.954,0,0,0,2.991,1.75c-.106-.931-1.362-3.735-.757-4.6.8-1.141,2.556-1.262,3.821-1.25,1.507.013,2.7-.571,4.2-.623.763-.026,1.635.054,2.176-.485a13.28,13.28,0,0,0,2.168-3.356,2,2,0,0,0-.592-2.052,2.214,2.214,0,0,0-1.474-.5" transform="translate(-303.885 552.229)" fill="none" clip-rule="evenodd"/></clipPath><clipPath id="bo"><path d="M377.006-464.844l-9.806-8.884-2.358,1.988,8.116,13.555,3.664.352s1.056-3.774,1.273-4.174l-.89-2.837" transform="translate(-364.843 473.728)" fill="none" clip-rule="evenodd"/></clipPath><clipPath id="bq"><path d="M258.119-292.193a8.838,8.838,0,0,0-6.578-2.361,8.836,8.836,0,0,0-6.3,3.025,8.828,8.828,0,0,0-2.361,6.578,8.837,8.837,0,0,0,3.025,6.3,9.426,9.426,0,0,0,2.39,1.59,8.859,8.859,0,0,0,4.188.771,8.837,8.837,0,0,0,6.3-3.025,8.844,8.844,0,0,0,2.361-6.579,8.844,8.844,0,0,0-3.025-6.3" transform="translate(-242.866 294.568)" fill="none" clip-rule="evenodd"/></clipPath><clipPath id="bs"><path d="M267.311-282.211a8.844,8.844,0,0,0-3.025-6.3,9.6,9.6,0,0,0-1.922-1.357,8.772,8.772,0,0,1,1.691,4.83,8.844,8.844,0,0,1-2.361,6.579,8.836,8.836,0,0,1-6.3,3.025,8.857,8.857,0,0,1-4.188-.771c-.158-.073-.314-.152-.469-.234a9.75,9.75,0,0,0,1.335,1.471,9.427,9.427,0,0,0,2.39,1.59,8.859,8.859,0,0,0,4.188.771,8.837,8.837,0,0,0,6.3-3.025,8.844,8.844,0,0,0,2.361-6.579" transform="translate(-250.737 289.868)" fill="none" clip-rule="evenodd"/></clipPath><clipPath id="bu"><path d="M380.321-543.786c-.689-7.549-4.48-14.481-11.269-20.6s-14.1-9.21-21.744-9.181a25.579,25.579,0,0,0-17.79,7.313,4.276,4.276,0,0,0-1.352,3.154,4.276,4.276,0,0,0,1.408,3.129l4.042,3.646a4.264,4.264,0,0,0,5.688.02,13.707,13.707,0,0,1,9.205-3.843c4-.029,8,1.736,11.9,5.248s5.986,7.324,6.255,11.362-1.341,8-4.773,11.8c-4.731,5.246-9.421,7.424-13.939,6.476-4.757-1-10.463-4.538-16.969-10.525l-1.749-1.578a4.269,4.269,0,0,0-6.022.31l-13.74,15.234a4.236,4.236,0,0,0-1.092,3.075,4.236,4.236,0,0,0,1.4,2.947l4.1,3.7a4.254,4.254,0,0,0,1.08.711,4.273,4.273,0,0,0,4.943-1.021l8.9-9.866a.307.307,0,0,1,.425-.029c7.825,6.686,15.225,10.284,21.994,10.692,7.2.434,14.1-2.952,20.515-10.062,6.388-7.083,9.278-14.52,8.589-22.107" transform="translate(-308.369 573.572)" fill="none" clip-rule="evenodd"/></clipPath><clipPath id="bw"><path d="M487.39-539.006c-.689-7.549-4.48-14.481-11.269-20.6a36.027,36.027,0,0,0-13.167-7.861,41.291,41.291,0,0,1,6.307,4.723c6.789,6.123,10.58,13.055,11.269,20.6.689,7.586-2.2,15.024-8.589,22.107-6.414,7.111-13.316,10.5-20.515,10.062a25.292,25.292,0,0,1-6.41-1.277,30.38,30.38,0,0,0,13.27,4.415c7.2.434,14.1-2.952,20.515-10.062,6.388-7.083,9.278-14.52,8.589-22.107" transform="translate(-445.016 567.471)" fill="none" clip-rule="evenodd"/></clipPath><clipPath id="by"><path d="M258.9-470.292l-4.647,1.432-11.117,18.95.758,3.663,14.4,7.2,2.021-3.916-9.1-6.948,5.559-7.58,2.148-12.128-.027-.674" transform="translate(-243.136 470.292)" fill="none" clip-rule="evenodd"/></clipPath><clipPath id="ca"><path d="M355.791-482.152l-2.359-2.534-2.274.632-.632,2.274,2.021.379,1.9.383,1.345-1.134" transform="translate(-350.526 484.686)" fill="none" clip-rule="evenodd"/></clipPath><clipPath id="cc"><path d="M316.294-342.243l2.269.467-.364,1.336,1.965,2.3-2.694.98-2.639-2.249,1.463-2.835" transform="translate(-314.831 342.243)" fill="none" clip-rule="evenodd"/></clipPath><clipPath id="ce"><path d="M88.16-413.475a5.1,5.1,0,0,0-3.126,2.553,5.1,5.1,0,0,0-.378,4.019,5.1,5.1,0,0,0,2.554,3.126,5.1,5.1,0,0,0,4.018.377,5.432,5.432,0,0,0,1.5-.71,5.117,5.117,0,0,0,1.628-1.844,5.1,5.1,0,0,0,.377-4.018,5.107,5.107,0,0,0-2.554-3.126,5.107,5.107,0,0,0-4.018-.377" transform="translate(-84.41 413.721)" fill="none" clip-rule="evenodd"/></clipPath><clipPath id="cg"><path d="M101.25-413.1a5.107,5.107,0,0,0-4.018-.377,5.538,5.538,0,0,0-1.244.547,5.066,5.066,0,0,1,2.894.6,5.11,5.11,0,0,1,2.554,3.126,5.1,5.1,0,0,1-.377,4.019,5.117,5.117,0,0,1-1.628,1.844c-.083.057-.169.11-.256.163a5.626,5.626,0,0,0,1.126-.223,5.432,5.432,0,0,0,1.5-.71,5.117,5.117,0,0,0,1.628-1.844,5.1,5.1,0,0,0,.377-4.018,5.107,5.107,0,0,0-2.554-3.126" transform="translate(-95.988 413.721)" fill="none" clip-rule="evenodd"/></clipPath><clipPath id="ci"><path d="M27.367-625.728c-3.941-1.905-8.5-2.091-13.551-.553S5.061-622.041,2.8-618.25a14.771,14.771,0,0,0-1.674,10.981,2.469,2.469,0,0,0,1.159,1.608,2.469,2.469,0,0,0,1.968.234l3.007-.916a2.463,2.463,0,0,0,1.7-2.81,7.917,7.917,0,0,1,.837-5.7,10.215,10.215,0,0,1,6.137-4.327,9.781,9.781,0,0,1,7.485.285,9.228,9.228,0,0,1,4.421,5.874c1.189,3.9.871,6.872-.943,8.826-1.91,2.057-5.36,3.829-10.258,5.267l-1.3.4a2.466,2.466,0,0,0-1.638,3.073l3.452,11.334a2.445,2.445,0,0,0,1.2,1.456,2.446,2.446,0,0,0,1.876.183l3.05-.929a2.453,2.453,0,0,0,.673-.323,2.468,2.468,0,0,0,.966-2.75l-2.236-7.34a.177.177,0,0,1,.112-.219c5.638-1.884,9.62-4.476,11.837-7.7,2.357-3.434,2.735-7.858,1.124-13.149-1.6-5.27-4.426-8.913-8.386-10.829" transform="translate(-0.742 627.31)" fill="none" clip-rule="evenodd"/></clipPath><clipPath id="ck"><path d="M46.427-625.728c-3.941-1.905-8.5-2.091-13.551-.553a20.8,20.8,0,0,0-7.809,4.178,23.85,23.85,0,0,1,4.215-1.717c5.051-1.538,9.61-1.352,13.552.553,3.96,1.916,6.781,5.56,8.386,10.829,1.611,5.29,1.233,9.714-1.124,13.149a14.607,14.607,0,0,1-2.539,2.793,17.544,17.544,0,0,0,6.134-5.255c2.357-3.434,2.735-7.858,1.124-13.149-1.6-5.27-4.426-8.913-8.386-10.829" transform="translate(-25.067 627.31)" fill="none" clip-rule="evenodd"/></clipPath><clipPath id="cm"><path d="M715.8-387.866a6.252,6.252,0,0,0-4.791,1.216,6.249,6.249,0,0,0-2.5,4.265,6.245,6.245,0,0,0,1.216,4.792,6.25,6.25,0,0,0,4.265,2.5,6.662,6.662,0,0,0,2.03-.013,6.263,6.263,0,0,0,2.762-1.2,6.25,6.25,0,0,0,2.5-4.265,6.255,6.255,0,0,0-1.216-4.792,6.255,6.255,0,0,0-4.265-2.5" transform="translate(-708.438 387.938)" fill="none" clip-rule="evenodd"/></clipPath><clipPath id="co"><path d="M735.225-385.365a6.255,6.255,0,0,0-4.265-2.5,6.8,6.8,0,0,0-1.664-.036,6.2,6.2,0,0,1,2.9,2.164,6.257,6.257,0,0,1,1.216,4.792,6.252,6.252,0,0,1-2.5,4.265,6.261,6.261,0,0,1-2.761,1.2c-.121.02-.244.035-.368.048a6.907,6.907,0,0,0,1.365.335,6.657,6.657,0,0,0,2.03-.012,6.265,6.265,0,0,0,2.761-1.2,6.251,6.251,0,0,0,2.5-4.265,6.255,6.255,0,0,0-1.216-4.792" transform="translate(-727.786 387.935)" fill="none" clip-rule="evenodd"/></clipPath><clipPath id="cq"><path d="M733.968-635.163c-3.388-4.155-8.353-6.722-14.755-7.629s-11.912.173-16.382,3.211a18.092,18.092,0,0,0-7.543,11.322,3.026,3.026,0,0,0,.454,2.385A3.023,3.023,0,0,0,697.8-624.6l3.812.54a3.016,3.016,0,0,0,3.344-2.237,9.7,9.7,0,0,1,3.88-5.893c2.334-1.6,5.38-2.146,9.051-1.625s6.406,1.929,8.16,4.191,2.374,5.219,1.866,8.808c-.7,4.947-2.59,8.079-5.615,9.308-3.186,1.295-7.931,1.475-14.113.536l-1.649-.234a3.02,3.02,0,0,0-3.41,2.563l-2.036,14.367a3,3,0,0,0,.576,2.235,3,3,0,0,0,1.987,1.174l3.867.548a3,3,0,0,0,.914-.01,3.022,3.022,0,0,0,2.5-2.553l1.318-9.3a.218.218,0,0,1,.237-.185c7.233.828,12.995.013,17.126-2.424,4.394-2.592,7.1-7.306,8.054-14.012.947-6.68-.3-12.184-3.7-16.361" transform="translate(-695.211 643.103)" fill="none" clip-rule="evenodd"/></clipPath><clipPath id="cs"><path d="M781.646-635.162c-3.388-4.155-8.353-6.722-14.755-7.629a25.479,25.479,0,0,0-10.83.595,29.2,29.2,0,0,1,5.567.277c6.4.907,11.367,3.474,14.755,7.629,3.4,4.177,4.649,9.682,3.7,16.361-.95,6.706-3.66,11.42-8.054,14.012a17.884,17.884,0,0,1-4.264,1.785,21.481,21.481,0,0,0,9.528-2.657c4.394-2.592,7.1-7.306,8.054-14.012.947-6.68-.3-12.184-3.7-16.361" transform="translate(-756.061 643.102)" fill="none" clip-rule="evenodd"/></clipPath><clipPath id="cu"><path d="M768.785-88.084l2.128-.6,3.425,5.188h-3.425l-2.062-1.052-.066-3.535" transform="translate(-768.785 88.686)" fill="none" clip-rule="evenodd"/></clipPath><clipPath id="cw"><path d="M582.473-134.347s-2.973,2.179-2.935,4.1c0,0-.317,4.055.488,5.652l4.473,4.074,8.263-.53,2.668-11.71-12.957-1.589" transform="translate(-579.476 134.347)" fill="none" clip-rule="evenodd"/></clipPath><clipPath id="cy"><path d="M609.078-142.985s-3.568-.839-4.79,1.6l-2.431,4.49,4.284,5.706,32.454-.1-.066-3.876-10.5-2.964a6.511,6.511,0,0,0,2.158-2.6c.831-1.789.182-3.113-.487-4.795-.205-.516-1.184-3.374-2.024-3.149l-18.6,5.7" transform="translate(-601.857 148.694)" fill="none" clip-rule="evenodd"/></clipPath><clipPath id="da"><path d="M541.445-339.405l-1.5-2.671,1.113-.69,1.431,1.6.375-.571,1,2.441-1.061.874-1.364-.985" transform="translate(-539.947 342.766)" fill="none" clip-rule="evenodd"/></clipPath><clipPath id="dc"><path d="M569.878-324.06,559.586-321.3l-9.1-9.772-2.016,1.841,8.384,16.161,12.573-2.549.455-8.445" transform="translate(-548.466 331.068)" fill="none" clip-rule="evenodd"/></clipPath><clipPath id="de"><path d="M592.553-270.2c2.24-6.235,2.672-12.845,3.477-19.39a17.364,17.364,0,0,1,1.353-5.648,6.672,6.672,0,0,1,4.359-3.552c2.294-.672,4.97-.542,7.335-.608,2.241,0,3.947,8.483,6.1,12.637a45.769,45.769,0,0,1,3.543,7.563,58.9,58.9,0,0,1,2.042,8.08c.662,4.138,2.6,7.075.614,8.411-.18.053-.354.106-.518.159a47.826,47.826,0,0,1-9.928,2.11,39.4,39.4,0,0,1-9.006-.123c-4.083-.537-8.034-1.245-11.576-3.5l2.2-6.138" transform="translate(-590.348 299.403)" fill="none" clip-rule="evenodd"/></clipPath><clipPath id="dg"><path d="M651.2-341.51c-1.15-3.892-6.726-5.416-8.178-.984a8.882,8.882,0,0,0-.5,4.135,4.436,4.436,0,0,0,2.284,3.336l.022.01-.185,1.066a.323.323,0,0,0,.016.226.324.324,0,0,0,.23.113l1.272.232a1.408,1.408,0,0,0,.635.018,1.185,1.185,0,0,0,.687-1.122c.008-.112.011-.224.013-.338a5.913,5.913,0,0,0,3.7-6.694" transform="translate(-642.445 345.193)" fill="none" clip-rule="evenodd"/></clipPath><clipPath id="di"><path d="M611.182-359.669c-1.024-.187-1.933.783-2.9,1.276-.8.41-1.7.5-2.534.831a2.521,2.521,0,0,0-1.708,2.006,4.2,4.2,0,0,0-2.635-.782,1.817,1.817,0,0,0-1.494,2.157c.305.83,1.367,1.058,1.7,1.876.521,1.294-1.064,3.225-.054,4.1.243.211.581.272.819.489a2.411,2.411,0,0,1,.5,1.121,4.026,4.026,0,0,0,4.132,2.873,4.758,4.758,0,0,0,2.493-2.757c.528-1.473-.251-2.018-.34-3.419a6.1,6.1,0,0,1,1.441-4.287,3.89,3.89,0,0,1,2.516-1.447c.386-.024.254.293.7.009a1.932,1.932,0,0,0,.519-.826c-1.008-.866-1.805-2.979-3.152-3.224" transform="translate(-599.839 359.693)" fill="none" clip-rule="evenodd"/></clipPath><clipPath id="dk"><path d="M669.615-355.048a11.7,11.7,0,0,1,1.6.4c.749.358.677,1.145.87,1.836a7.38,7.38,0,0,0,1.007,2.4,7.185,7.185,0,0,0,1.272,1.038,1.807,1.807,0,0,1,.787,1.43c-.027.56-.42,1.05-.494,1.608a8.026,8.026,0,0,1-.249,2.107,2.591,2.591,0,0,1-.651,1.185,1.864,1.864,0,0,1-1.608.245,3.377,3.377,0,0,0-1.641-.115c-1.176.353-1,1.537-1.339,2.513a2.827,2.827,0,0,1-3.6,1.728,3.125,3.125,0,0,1-1.632-3.114c.047-.647.324-1.242.364-1.89.038-.625-.286-1.5.3-1.98a4.539,4.539,0,0,0,.45-.308.919.919,0,0,0,.2-.4,1.8,1.8,0,0,0-.25-1.486,3.722,3.722,0,0,1-.64-.857A3.1,3.1,0,0,1,664.4-350a2.6,2.6,0,0,0-1.305-2.531,6.938,6.938,0,0,1-1.573-.884c-.075-.065-1.188-1.115-1.225-.9a2.311,2.311,0,0,1,.533-1,4.551,4.551,0,0,1,1.346-1.251c1.719-.918,1.727,1.347,3.091,1.093.329-.061.585-.353.885-.522a1.953,1.953,0,0,1,1.8.1,12.755,12.755,0,0,0,1.66.849" transform="translate(-660.295 356.784)" fill="none" clip-rule="evenodd"/></clipPath><clipPath id="dm"><path d="M541.89-135.768a4.144,4.144,0,0,0-3.238.5,4.142,4.142,0,0,0-1.918,2.656,4.14,4.14,0,0,0,.5,3.238,4.143,4.143,0,0,0,2.656,1.918,4.407,4.407,0,0,0,1.34.12,4.151,4.151,0,0,0,1.9-.62,4.143,4.143,0,0,0,1.918-2.657,4.146,4.146,0,0,0-.5-3.238,4.147,4.147,0,0,0-2.656-1.918" transform="translate(-536.604 135.898)" fill="none" clip-rule="evenodd"/></clipPath><clipPath id="do"><path d="M553.261-133.848a4.147,4.147,0,0,0-2.656-1.918,4.515,4.515,0,0,0-1.1-.129,4.111,4.111,0,0,1,1.778,1.611,4.146,4.146,0,0,1,.5,3.239,4.142,4.142,0,0,1-1.918,2.656,4.151,4.151,0,0,1-1.9.62c-.082.006-.163.008-.245.009a4.581,4.581,0,0,0,.879.307,4.407,4.407,0,0,0,1.34.12,4.15,4.15,0,0,0,1.9-.62,4.143,4.143,0,0,0,1.918-2.657,4.146,4.146,0,0,0-.5-3.238" transform="translate(-547.725 135.895)" fill="none" clip-rule="evenodd"/></clipPath><clipPath id="dq"><path d="M567.474-294.951c-1.974-2.955-5.087-4.962-9.254-5.965a15.006,15.006,0,0,0-11.012,1.085,11.991,11.991,0,0,0-5.692,6.994,2,2,0,0,0,.149,1.6,2.005,2.005,0,0,0,1.28.974l2.481.6a2,2,0,0,0,2.348-1.265,6.427,6.427,0,0,1,2.932-3.644,8.292,8.292,0,0,1,6.075-.5,7.942,7.942,0,0,1,5.12,3.281,7.493,7.493,0,0,1,.675,5.93c-.775,3.22-2.219,5.167-4.292,5.788-2.183.653-5.326.473-9.346-.537l-1.074-.258a2,2,0,0,0-2.411,1.476l-2.25,9.351a1.987,1.987,0,0,0,.239,1.511,1.986,1.986,0,0,0,1.237.9l2.517.605a1.989,1.989,0,0,0,.6.051,2,2,0,0,0,1.808-1.527l1.457-6.056a.144.144,0,0,1,.168-.107c4.72,1,8.574.829,11.454-.519,3.063-1.433,5.148-4.372,6.2-8.737,1.046-4.348.572-8.059-1.41-11.029" transform="translate(-541.414 301.467)" fill="none" clip-rule="evenodd"/></clipPath><clipPath id="ds"><path d="M602.305-294.949c-1.974-2.956-5.087-4.962-9.254-5.965a16.894,16.894,0,0,0-7.184-.291,19.377,19.377,0,0,1,3.656.534c4.167,1,7.281,3.01,9.254,5.965,1.982,2.971,2.456,6.682,1.41,11.029-1.05,4.365-3.136,7.3-6.2,8.737a11.846,11.846,0,0,1-2.927.909,14.243,14.243,0,0,0,6.455-1.152c3.063-1.433,5.148-4.372,6.2-8.737,1.046-4.348.572-8.059-1.41-11.029" transform="translate(-585.867 301.466)" fill="none" clip-rule="evenodd"/></clipPath><clipPath id="du"><path d="M209.679-539.851a3.712,3.712,0,0,0-2.747,1.034,3.711,3.711,0,0,0-1.193,2.683,3.709,3.709,0,0,0,1.035,2.747,3.711,3.711,0,0,0,2.683,1.193,3.958,3.958,0,0,0,1.2-.141,3.722,3.722,0,0,0,1.55-.893,3.713,3.713,0,0,0,1.193-2.683,3.715,3.715,0,0,0-1.035-2.748,3.715,3.715,0,0,0-2.682-1.193" transform="translate(-205.736 539.853)" fill="none" clip-rule="evenodd"/></clipPath><clipPath id="dw"><path d="M222.828-538.658a3.715,3.715,0,0,0-2.682-1.193,4.035,4.035,0,0,0-.984.088,3.685,3.685,0,0,1,1.855,1.086,3.715,3.715,0,0,1,1.035,2.748,3.712,3.712,0,0,1-1.193,2.682,3.722,3.722,0,0,1-1.55.893c-.07.02-.142.037-.214.053a4.078,4.078,0,0,0,.828.108,3.958,3.958,0,0,0,1.2-.141,3.723,3.723,0,0,0,1.55-.893,3.714,3.714,0,0,0,1.193-2.683,3.716,3.716,0,0,0-1.035-2.748" transform="translate(-219.095 539.853)" fill="none" clip-rule="evenodd"/></clipPath><clipPath id="dy"><path d="M206.246-690.51a13.236,13.236,0,0,0-9.213-3.527,13.446,13.446,0,0,0-9.457,2.979,10.745,10.745,0,0,0-3.7,7.181,1.8,1.8,0,0,0,.426,1.377,1.8,1.8,0,0,0,1.3.618l2.286.067a1.792,1.792,0,0,0,1.826-1.542,5.759,5.759,0,0,1,1.9-3.735,7.431,7.431,0,0,1,5.235-1.558,7.114,7.114,0,0,1,5.094,1.934,6.712,6.712,0,0,1,1.684,5.075c-.087,2.966-.995,4.94-2.7,5.866-1.794.975-4.583,1.395-8.295,1.25l-.989-.029a1.793,1.793,0,0,0-1.843,1.738l-.252,8.614a1.779,1.779,0,0,0,.487,1.281,1.78,1.78,0,0,0,1.251.561l2.319.068a1.782,1.782,0,0,0,.539-.067,1.8,1.8,0,0,0,1.3-1.672l.163-5.579a.129.129,0,0,1,.128-.125c4.324.01,7.671-.852,9.948-2.563,2.422-1.82,3.71-4.782,3.827-8.8.117-4.005-.982-7.172-3.267-9.412" transform="translate(-183.861 694.045)" fill="none" clip-rule="evenodd"/></clipPath><clipPath id="ea"><path d="M230.929-690.51a13.236,13.236,0,0,0-9.213-3.527,15.132,15.132,0,0,0-6.353,1.067,17.349,17.349,0,0,1,3.3-.2,13.237,13.237,0,0,1,9.213,3.527c2.285,2.24,3.384,5.407,3.267,9.412-.118,4.021-1.405,6.983-3.827,8.8a10.619,10.619,0,0,1-2.4,1.336,12.767,12.767,0,0,0,5.448-2.2c2.422-1.82,3.71-4.782,3.827-8.8.117-4.005-.982-7.172-3.267-9.412" transform="translate(-215.363 694.045)" fill="none" clip-rule="evenodd"/></clipPath><clipPath id="ec"><path d="M590.144-192.225l-2.641-.624.218-1.14,1.9.027-.147-.587,2.195.81-.066,1.216-1.461.3" transform="translate(-587.503 194.55)" fill="none" clip-rule="evenodd"/></clipPath><clipPath id="ee"><path d="M620.326-234.116l-4.425,8.585-12.18.266-.008,2.419,14.45,2.873,5.1-8.107-2.933-6.036" transform="translate(-603.713 234.116)" fill="none" clip-rule="evenodd"/></clipPath><clipPath id="eg"><path d="M199.131-386.091l-1.2-13.177-3.081-.134-2.105,10.156-2.563,4.276,3.919,3.778s3.332-2.062,3.763-2.209l1.267-2.69" transform="translate(-190.183 399.402)" fill="none" clip-rule="evenodd"/></clipPath><clipPath id="ei"><path d="M209.89-415.259l-.02-3.462-2.1-1.075-2,1.245L207-416.9l1.137,1.568,1.757.076" transform="translate(-205.765 419.796)" fill="none" clip-rule="evenodd"/></clipPath><clipPath id="ek"><path d="M949.839-475.268l-3.645-12.719-3.052.445-.254,15.8,2.927,2.231s2.887-2.649,3.284-2.874l.74-2.88" transform="translate(-942.888 487.988)" fill="none" clip-rule="evenodd"/></clipPath><clipPath id="em"><path d="M940.108-502.516l-.668-3.4-2.265-.663-1.736,1.6,1.518,1.388,1.411,1.327,1.741-.254" transform="translate(-935.439 506.576)" fill="none" clip-rule="evenodd"/></clipPath></defs><g transform="translate(130.223 5.842)"><path d="M44.4-21.122a25.712,25.712,0,0,1-.6,5.664,22.115,22.115,0,0,1-1.755,5,19.579,19.579,0,0,1-2.8,4.2A18.977,18.977,0,0,1,35.518-2.98L46.374,8.732h-4.72a5.6,5.6,0,0,1-1.888-.3,3.765,3.765,0,0,1-1.5-1.033L30.827-.678a24.823,24.823,0,0,1-3.5.826,23.6,23.6,0,0,1-3.791.3,22.123,22.123,0,0,1-8.5-1.578,19.017,19.017,0,0,1-6.578-4.44A19.963,19.963,0,0,1,4.219-12.4a24.4,24.4,0,0,1-1.5-8.717,24.4,24.4,0,0,1,1.5-8.717,20.122,20.122,0,0,1,4.248-6.844,19.09,19.09,0,0,1,6.578-4.469,21.942,21.942,0,0,1,8.5-1.593,22.053,22.053,0,0,1,8.511,1.593,19.057,19.057,0,0,1,6.593,4.469,20.122,20.122,0,0,1,4.248,6.844A24.4,24.4,0,0,1,44.4-21.122Zm-5.87,0a21.484,21.484,0,0,0-1.062-6.992,14.788,14.788,0,0,0-3.009-5.236,13.057,13.057,0,0,0-4.72-3.289,16.023,16.023,0,0,0-6.2-1.151,15.943,15.943,0,0,0-6.165,1.151,13.2,13.2,0,0,0-4.735,3.289,14.668,14.668,0,0,0-3.024,5.236,21.484,21.484,0,0,0-1.062,6.992,21.35,21.35,0,0,0,1.062,6.977,14.687,14.687,0,0,0,3.024,5.222,13.041,13.041,0,0,0,4.735,3.274,16.125,16.125,0,0,0,6.165,1.136,16.206,16.206,0,0,0,6.2-1.136,12.9,12.9,0,0,0,4.72-3.274,14.807,14.807,0,0,0,3.009-5.222A21.35,21.35,0,0,0,38.527-21.122ZM68.646-4.543a11.8,11.8,0,0,0,4.69-.885,9.837,9.837,0,0,0,3.5-2.478,10.838,10.838,0,0,0,2.183-3.806,15.041,15.041,0,0,0,.752-4.867V-42.273h5.693v25.694A19.281,19.281,0,0,1,84.3-9.794a15.764,15.764,0,0,1-3.333,5.413A15.243,15.243,0,0,1,75.667-.8,18.157,18.157,0,0,1,68.646.5,18.157,18.157,0,0,1,61.625-.8a15.4,15.4,0,0,1-5.31-3.584,15.65,15.65,0,0,1-3.348-5.413A19.281,19.281,0,0,1,51.8-16.579V-42.273H57.5v25.665a15.041,15.041,0,0,0,.752,4.868,10.838,10.838,0,0,0,2.183,3.806,9.965,9.965,0,0,0,3.511,2.493A11.741,11.741,0,0,0,68.646-4.543ZM102.07,0H96.347V-42.273h5.723Zm40.769-42.273v2.124a3.233,3.233,0,0,1-.62,1.888l-23.924,33.6h24.131V0H110.8V-2.242a2.875,2.875,0,0,1,.561-1.682l23.954-33.689H111.923v-4.661Z" transform="translate(98.5 58)" fill="#3a3386"/></g><g transform="translate(228.723 54.329)"><path d="M25.931-15.281a10.974,10.974,0,0,1,.723,1.49q.31.782.6,1.578.3-.826.619-1.578t.738-1.519L42.923-41.3a1.7,1.7,0,0,1,.8-.826,3.668,3.668,0,0,1,1.18-.147h4.219V0H44.1V-31.063q0-.62.029-1.328t.088-1.445L29.736-7.4a2.275,2.275,0,0,1-2.065,1.327h-.826A2.275,2.275,0,0,1,24.78-7.4L9.971-33.925q.089.767.133,1.5t.044,1.357V0H5.133V-42.273H9.352a3.668,3.668,0,0,1,1.18.147,1.7,1.7,0,0,1,.8.826ZM94.193,0H89.768a1.9,1.9,0,0,1-1.239-.384,2.358,2.358,0,0,1-.708-.973L83.868-11.564H64.9L60.947-1.357a2.3,2.3,0,0,1-.708.944A1.885,1.885,0,0,1,59,0H54.575l16.9-42.273H77.29Zm-27.7-15.694H82.275l-6.637-17.2a32.143,32.143,0,0,1-1.269-3.982q-.324,1.209-.634,2.227t-.6,1.785Zm54.693-19.972a2.287,2.287,0,0,1-.561.664,1.245,1.245,0,0,1-.767.221,2.043,2.043,0,0,1-1.165-.5,18.571,18.571,0,0,0-1.682-1.106,13.645,13.645,0,0,0-2.449-1.106A10.536,10.536,0,0,0,111.1-38a10.25,10.25,0,0,0-3.393.516,7.213,7.213,0,0,0-2.463,1.4,5.752,5.752,0,0,0-1.49,2.08,6.6,6.6,0,0,0-.5,2.581,4.77,4.77,0,0,0,.87,2.935,7.5,7.5,0,0,0,2.3,1.991,17.628,17.628,0,0,0,3.245,1.431q1.814.6,3.717,1.254t3.717,1.46a13.074,13.074,0,0,1,3.245,2.05,9.347,9.347,0,0,1,2.3,3.039,10.113,10.113,0,0,1,.87,4.425,14.271,14.271,0,0,1-.944,5.207,12,12,0,0,1-2.758,4.233A12.9,12.9,0,0,1,115.36-.56a16.385,16.385,0,0,1-6,1.032,18.331,18.331,0,0,1-7.478-1.49,17.541,17.541,0,0,1-5.767-4.027l1.652-2.714a2.172,2.172,0,0,1,.575-.546,1.348,1.348,0,0,1,.752-.221,2.347,2.347,0,0,1,1.416.664A23.593,23.593,0,0,0,102.5-6.4a15.21,15.21,0,0,0,2.891,1.46,11.409,11.409,0,0,0,4.145.664,10.9,10.9,0,0,0,3.629-.561,7.706,7.706,0,0,0,2.7-1.578,6.838,6.838,0,0,0,1.7-2.434,8.133,8.133,0,0,0,.59-3.156,5.3,5.3,0,0,0-.87-3.142,7.214,7.214,0,0,0-2.286-2.05,15.981,15.981,0,0,0-3.23-1.4l-3.717-1.18a37.481,37.481,0,0,1-3.717-1.4,12.08,12.08,0,0,1-3.23-2.065,9.489,9.489,0,0,1-2.286-3.171,11.3,11.3,0,0,1-.87-4.705,11.2,11.2,0,0,1,.87-4.337,11.177,11.177,0,0,1,2.522-3.717,12.224,12.224,0,0,1,4.086-2.6,14.966,14.966,0,0,1,5.59-.973,17.894,17.894,0,0,1,6.461,1.121,14.878,14.878,0,0,1,5.1,3.245ZM159.6-42.273v4.808H145.936V0h-5.723V-37.465H126.5v-4.808Zm32.066,0v4.661h-20.3v14.042H187.8v4.484H171.365V-4.661h20.3V0H165.613V-42.273Zm14.514,24.632V0h-5.693V-42.273H212.43a26.105,26.105,0,0,1,6.932.811,13.231,13.231,0,0,1,4.823,2.345,9.391,9.391,0,0,1,2.817,3.7,12.373,12.373,0,0,1,.914,4.853,12.165,12.165,0,0,1-.708,4.189,11.063,11.063,0,0,1-2.05,3.5,12.266,12.266,0,0,1-3.275,2.64,16.21,16.21,0,0,1-4.381,1.652,6.044,6.044,0,0,1,1.888,1.8L231.723,0h-5.074a2.5,2.5,0,0,1-2.3-1.21l-10.974-15.1a3.2,3.2,0,0,0-1.092-1.018,3.936,3.936,0,0,0-1.77-.31Zm0-4.16h5.988a14.579,14.579,0,0,0,4.41-.6,8.974,8.974,0,0,0,3.186-1.711,7.1,7.1,0,0,0,1.932-2.64,8.622,8.622,0,0,0,.649-3.392,6.737,6.737,0,0,0-2.493-5.694q-2.493-1.917-7.419-1.917h-6.254Z" transform="translate(0.231 66.513)" fill="#3a3386"/><line x2="260.731" transform="translate(0 83.955)" fill="none" stroke="#d56f85" stroke-width="3"/></g><g transform="translate(7.264 127.092)" clip-path="url(#a)"><g transform="translate(-17.381 -139.42)" clip-path="url(#b)"><path d="M29.3-111.892H239.845v25.064H29.3Z" transform="translate(-13.001 250.23)" fill="#f6eaea"/></g></g><g transform="translate(192.419 85.466)" clip-path="url(#c)"><g transform="translate(-202.536 -97.794)" clip-path="url(#b)"><path d="M884.7-304.2h13.164v48.027H884.7Z" transform="translate(-683.244 400.913)" fill="#292948"/></g></g><g transform="translate(185.163 83.948)" clip-path="url(#e)"><g transform="translate(-195.28 -96.276)" clip-path="url(#b)"><path d="M851.176-311.212h12.547v50.5H851.176Z" transform="translate(-656.978 406.406)" fill="#292948"/></g></g><g transform="translate(190.088 128.777)" clip-path="url(#g)"><g transform="translate(-200.205 -141.105)" clip-path="url(#b)"><path d="M873.93-104.107h8.8v10.92h-8.8Z" transform="translate(-674.807 244.13)" fill="#1c1c35"/></g></g><g transform="translate(195.16 129.534)" clip-path="url(#i)"><g transform="translate(-205.278 -141.862)" clip-path="url(#b)"><path d="M897.365-100.61h9.418v9.436h-9.418Z" transform="translate(-693.17 241.39)" fill="#1c1c35"/></g></g><g transform="translate(192.438 38.283)" clip-path="url(#k)"><g transform="translate(-202.555 -50.611)" clip-path="url(#b)"><path d="M884.786-522.183h4.957v9.2h-4.957Z" transform="translate(-683.313 571.711)" fill="#292948"/></g></g><g transform="translate(193.595 34.84)" clip-path="url(#m)"><g transform="translate(-203.712 -47.168)" clip-path="url(#b)"><path d="M890.133-538.086h11.288v15.41H890.133Z" transform="translate(-687.503 584.172)" fill="#eac1a3"/></g></g><g transform="translate(199.579 35.248)" clip-path="url(#o)"><g transform="translate(-209.697 -47.576)" clip-path="url(#b)"><path d="M917.781-536.2h8.076v12.735h-8.076Z" transform="translate(-709.167 582.697)" fill="#292948"/></g></g><g transform="translate(185.599 31.2)" clip-path="url(#q)"><g transform="translate(-195.716 -43.528)" clip-path="url(#b)"><path d="M853.192-554.906H871.43v11.5H853.192Z" transform="translate(-658.558 597.351)" fill="#292948"/></g></g><g transform="translate(184.264 48.586)" clip-path="url(#s)"><g transform="translate(-194.382 -60.914)" clip-path="url(#b)"><path d="M847.026-474.584h24.5v41.332h-24.5Z" transform="translate(-653.727 534.415)" fill="#8babee"/></g></g><g transform="translate(195.096 45.597)" clip-path="url(#u)"><g transform="translate(-205.214 -57.925)" clip-path="url(#b)"><path d="M897.069-488.39h5.511v6.776h-5.511Z" transform="translate(-692.938 545.233)" fill="#eac1a3"/></g></g><g transform="translate(164.745 54.922)" clip-path="url(#w)"><g transform="translate(-174.862 -67.25)" clip-path="url(#b)"><path d="M756.848-445.311h7.87v6.027h-7.87Z" transform="translate(-583.068 511.479)" fill="#eac1a3"/></g></g><g transform="translate(167.656 48.675)" clip-path="url(#y)"><g transform="translate(-177.774 -61.003)" clip-path="url(#b)"><path d="M770.3-474.173h29.267V-454.2H770.3Z" transform="translate(-593.608 534.093)" fill="#8babee"/></g></g><g transform="translate(31.848 131.151)" clip-path="url(#aa)"><g transform="translate(-41.965 -143.479)" clip-path="url(#b)"><path d="M142.876-93.138h8.461v5.608h-8.461Z" transform="translate(-101.993 235.535)" fill="#292948"/></g></g><g transform="translate(16.568 132.862)" clip-path="url(#ac)"><g transform="translate(-26.686 -145.19)" clip-path="url(#b)"><path d="M72.286-85.233h8.178v6.6H72.286Z" transform="translate(-46.682 229.341)" fill="#292948"/></g></g><g transform="translate(12.362 90.12)" clip-path="url(#ae)"><g transform="translate(-22.479 -102.448)" clip-path="url(#b)"><path d="M52.852-282.7H70.8v45.508H52.852Z" transform="translate(-31.455 384.064)" fill="#8babee"/></g></g><g transform="translate(25.83 95.529)" clip-path="url(#ag)"><g transform="translate(-35.948 -107.857)" clip-path="url(#b)"><path d="M115.075-257.71h14.46v38.21h-14.46Z" transform="translate(-80.21 364.485)" fill="#8babee"/></g></g><g transform="translate(11.869 57.786)" clip-path="url(#ai)"><g transform="translate(-21.987 -70.114)" clip-path="url(#b)"><path d="M50.576-432.08H89.982v45.414H50.576Z" transform="translate(-29.672 501.112)" fill="#5d66d2"/></g></g><g transform="translate(21.512 58.521)" clip-path="url(#ak)"><g transform="translate(-31.629 -70.849)" clip-path="url(#b)"><path d="M95.124-428.684h26.367v44.82H95.124Z" transform="translate(-64.577 498.45)" fill="#fff"/></g></g><g transform="translate(45.521 49.045)" clip-path="url(#am)"><g transform="translate(-55.639 -61.373)" clip-path="url(#b)"><path d="M206.045-472.463h8.225v16.478h-8.225Z" transform="translate(-151.489 532.754)" fill="#292948"/></g></g><g transform="translate(40.026 48.74)" clip-path="url(#ao)"><g transform="translate(-50.143 -61.069)" clip-path="url(#b)"><path d="M180.656-473.869h12.132v13.309H180.656Z" transform="translate(-131.596 533.855)" fill="#eacdaf"/></g></g><g transform="translate(25.669 45.299)" clip-path="url(#aq)"><g transform="translate(-35.787 -57.627)" clip-path="url(#b)"><path d="M114.331-489.767H140.78v22.422H114.331Z" transform="translate(-79.627 546.312)" fill="#292948"/></g></g><g transform="translate(18.072 49.197)" clip-path="url(#as)"><g transform="translate(-28.189 -61.525)" clip-path="url(#b)"><path d="M79.231-471.758h22.54v18.43H79.231Z" transform="translate(-52.124 532.201)" fill="#5d66d2"/></g></g><g transform="translate(19.437 42.542)" clip-path="url(#au)"><g transform="translate(-29.554 -54.87)" clip-path="url(#b)"><path d="M85.538-502.507h5.223v7.753H85.538Z" transform="translate(-57.066 556.294)" fill="#ebceb0"/></g></g><g transform="translate(80.486 129.999)" clip-path="url(#aw)"><g transform="translate(-90.604 -142.327)" clip-path="url(#b)"><path d="M367.581-98.46h9.268v6.3h-9.268Z" transform="translate(-278.06 239.705)" fill="#273040"/></g></g><g transform="translate(64.382 131.42)" clip-path="url(#ay)"><g transform="translate(-74.499 -143.748)" clip-path="url(#b)"><path d="M293.18-91.9h8.7v6.7h-8.7Z" transform="translate(-219.763 234.563)" fill="#273040"/></g></g><g transform="translate(62.239 82.275)" clip-path="url(#ba)"><g transform="translate(-72.356 -94.603)" clip-path="url(#b)"><path d="M283.28-318.941h17.028v51.975H283.28Z" transform="translate(-212.006 412.462)" fill="#bcbec1"/></g></g><g transform="translate(74.711 79.737)" clip-path="url(#bc)"><g transform="translate(-84.828 -92.065)" clip-path="url(#b)"><path d="M340.9-330.668h13.843v53.419H340.9Z" transform="translate(-257.153 421.651)" fill="#bcbec1"/></g></g><g transform="translate(60.519 47.276)" clip-path="url(#be)"><g transform="translate(-70.637 -59.604)" clip-path="url(#b)"><path d="M275.336-480.635h34.2v48.962h-34.2Z" transform="translate(-205.781 539.157)" fill="#8babee"/></g></g><g transform="translate(72.318 47.598)" clip-path="url(#bg)"><g transform="translate(-82.436 -59.926)" clip-path="url(#b)"><path d="M329.846-479.146h9.245v19.985h-9.245Z" transform="translate(-248.492 537.99)" fill="#fff"/></g></g><g transform="translate(76.578 71.635)" clip-path="url(#bi)"><g transform="translate(-86.696 -83.963)" clip-path="url(#b)"><path d="M349.527-368.1h10.116v20.441H349.527Z" transform="translate(-263.913 450.978)" fill="#fff"/></g></g><g transform="translate(70.287 36.937)" clip-path="url(#bk)"><g transform="translate(-80.404 -49.265)" clip-path="url(#b)"><path d="M320.461-528.4h11.22v13.66h-11.22Z" transform="translate(-241.139 576.584)" fill="#e7c9ac"/></g></g><g transform="translate(65.617 30.697)" clip-path="url(#bm)"><g transform="translate(-75.734 -43.025)" clip-path="url(#b)"><path d="M298.885-557.229h19.527v16.568H298.885Z" transform="translate(-224.233 599.172)" fill="#292948"/></g></g><g transform="translate(78.811 47.689)" clip-path="url(#bo)"><g transform="translate(-88.929 -60.017)" clip-path="url(#b)"><path d="M359.843-478.728h15.218v18.06H359.843Z" transform="translate(-271.996 537.662)" fill="#8babee"/></g></g><g transform="translate(52.409 86.469)" clip-path="url(#bq)"><g transform="translate(-62.526 -98.797)" clip-path="url(#b)"><path d="M237.866-299.567h20.456v20.456H237.866Z" transform="translate(-176.422 397.282)" fill="#d56f85"/></g></g><g transform="translate(54.113 87.486)" clip-path="url(#bs)"><g transform="translate(-64.23 -99.814)" clip-path="url(#b)"><path d="M245.737-294.868h18.752v19.438H245.737Z" transform="translate(-182.589 393.6)" fill="#c85876"/></g></g><g transform="translate(66.587 26.077)" clip-path="url(#bu)"><g transform="translate(-76.705 -38.405)" clip-path="url(#b)"><path d="M303.369-578.572h74.216v64.728H303.369Z" transform="translate(-227.747 615.895)" fill="#d56f85"/></g></g><g transform="translate(96.165 27.397)" clip-path="url(#bw)"><g transform="translate(-106.283 -39.726)" clip-path="url(#b)"><path d="M440.016-572.471h44.638v62.835H440.016Z" transform="translate(-334.816 611.115)" fill="#c85876"/></g></g><g transform="translate(52.467 48.432)" clip-path="url(#by)"><g transform="translate(-62.585 -60.76)" clip-path="url(#b)"><path d="M238.136-475.292h19.346v33.411H238.136Z" transform="translate(-176.634 534.97)" fill="#8babee"/></g></g><g transform="translate(75.712 45.317)" clip-path="url(#ca)"><g transform="translate(-85.83 -57.645)" clip-path="url(#b)"><path d="M345.526-489.686h7.429v5.832h-7.429Z" transform="translate(-260.778 546.249)" fill="#eac1a3"/></g></g><g transform="translate(67.986 76.149)" clip-path="url(#cc)"><g transform="translate(-78.103 -88.477)" clip-path="url(#b)"><path d="M309.831-347.243h7.5V-340h-7.5Z" transform="translate(-232.81 434.638)" fill="#e7c9ac"/></g></g><g transform="translate(18.11 60.677)" clip-path="url(#ce)"><g transform="translate(-28.228 -73.006)" clip-path="url(#b)"><path d="M79.41-418.721H92.143v12.732H79.41Z" transform="translate(-52.265 490.644)" fill="#d56f85"/></g></g><g transform="translate(20.616 60.677)" clip-path="url(#cg)"><g transform="translate(-30.734 -73.006)" clip-path="url(#b)"><path d="M90.988-418.721h10.226v12.709H90.988Z" transform="translate(-61.336 490.644)" fill="#c85876"/></g></g><g transform="translate(0 14.445)" clip-path="url(#ci)"><g transform="translate(-10.117 -26.773)" clip-path="url(#b)"><path d="M-4.258-632.31H33.9v47.1H-4.258Z" transform="translate(13.293 658.001)" fill="#d56f85"/></g></g><g transform="translate(5.265 14.445)" clip-path="url(#ck)"><g transform="translate(-15.383 -26.773)" clip-path="url(#b)"><path d="M20.067-632.31H52.958v32.979H20.067Z" transform="translate(-5.766 658.001)" fill="#c85876"/></g></g><g transform="translate(153.184 66.258)" clip-path="url(#cm)"><g transform="translate(-163.301 -78.586)" clip-path="url(#b)"><path d="M703.438-392.938h15.08v15.079h-15.08Z" transform="translate(-541.219 470.442)" fill="#d56f85"/></g></g><g transform="translate(157.372 66.259)" clip-path="url(#co)"><g transform="translate(-167.489 -78.587)" clip-path="url(#b)"><path d="M722.786-392.935h10.891v15.079H722.786Z" transform="translate(-556.379 470.44)" fill="#c85876"/></g></g><g transform="translate(150.321 11.027)" clip-path="url(#cq)"><g transform="translate(-160.438 -23.355)" clip-path="url(#b)"><path d="M690.211-648.1h44.93v54.984h-44.93Z" transform="translate(-530.855 670.375)" fill="#d56f85"/></g></g><g transform="translate(163.492 11.027)" clip-path="url(#cs)"><g transform="translate(-173.61 -23.355)" clip-path="url(#b)"><path d="M751.061-648.1H782.82v43.134H751.061Z" transform="translate(-578.534 670.375)" fill="#c85876"/></g></g><g transform="translate(166.246 131.033)" clip-path="url(#cu)"><g transform="translate(-176.364 -143.361)" clip-path="url(#b)"><path d="M763.785-93.686H771.5v7.353h-7.718Z" transform="translate(-588.504 235.965)" fill="#292948"/></g></g><g transform="translate(125.27 121.149)" clip-path="url(#cw)"><g transform="translate(-135.387 -133.477)" clip-path="url(#b)"><path d="M574.476-139.347h18.118v15.994H574.476Z" transform="translate(-440.171 271.742)" fill="#3a3386"/></g></g><g transform="translate(130.114 118.044)" clip-path="url(#cy)"><g transform="translate(-140.232 -130.372)" clip-path="url(#b)"><path d="M596.857-153.694h38.9v19.664h-38.9Z" transform="translate(-457.708 282.983)" fill="#464eba"/></g></g><g transform="translate(116.713 76.036)" clip-path="url(#da)"><g transform="translate(-126.831 -88.364)" clip-path="url(#b)"><path d="M534.947-347.766h6.087v6.511h-6.087Z" transform="translate(-409.198 435.048)" fill="#9f734a"/></g></g><g transform="translate(118.557 78.568)" clip-path="url(#dc)"><g transform="translate(-128.675 -90.896)" clip-path="url(#b)"><path d="M543.466-336.068h23.577V-315.9H543.466Z" transform="translate(-415.873 425.882)" fill="#edd4d4"/></g></g><g transform="translate(127.623 85.422)" clip-path="url(#de)"><g transform="translate(-137.74 -97.75)" clip-path="url(#b)"><path d="M585.348-304.4h34.066v41.324H585.348Z" transform="translate(-448.69 401.071)" fill="#edd4d4"/></g></g><g transform="translate(138.9 75.511)" clip-path="url(#dg)"><g transform="translate(-149.017 -87.839)" clip-path="url(#b)"><path d="M637.445-350.193h11.083v14.031H637.445Z" transform="translate(-489.511 436.95)" fill="#9f734a"/></g></g><g transform="translate(129.677 72.372)" clip-path="url(#di)"><g transform="translate(-139.795 -84.7)" clip-path="url(#b)"><path d="M594.839-364.693H611.5v18.157H594.839Z" transform="translate(-456.127 448.311)" fill="#292948"/></g></g><g transform="translate(142.763 73.002)" clip-path="url(#dk)"><g transform="translate(-152.881 -85.33)" clip-path="url(#b)"><path d="M655.3-361.784h17.024v20.463H655.3Z" transform="translate(-503.497 446.032)" fill="#292948"/></g></g><g transform="translate(115.99 120.814)" clip-path="url(#dm)"><g transform="translate(-126.107 -133.142)" clip-path="url(#b)"><path d="M531.6-140.9h10.737v10.737H531.6Z" transform="translate(-406.579 272.957)" fill="#d56f85"/></g></g><g transform="translate(118.397 120.814)" clip-path="url(#do)"><g transform="translate(-128.514 -133.142)" clip-path="url(#b)"><path d="M542.725-140.895h8.33v10.736h-8.33Z" transform="translate(-415.293 272.955)" fill="#c85876"/></g></g><g transform="translate(117.031 84.975)" clip-path="url(#dq)"><g transform="translate(-127.148 -97.303)" clip-path="url(#b)"><path d="M536.414-306.467h30.175v36.661H536.414Z" transform="translate(-410.348 402.688)" fill="#d56f85"/></g></g><g transform="translate(126.653 84.976)" clip-path="url(#ds)"><g transform="translate(-136.77 -97.304)" clip-path="url(#b)"><path d="M580.867-306.466H601.42v29.607H580.867Z" transform="translate(-445.179 402.687)" fill="#c85876"/></g></g><g transform="translate(44.372 33.376)" clip-path="url(#du)"><g transform="translate(-54.489 -45.704)" clip-path="url(#b)"><path d="M200.736-544.853h9.826v9.826h-9.826Z" transform="translate(-147.329 589.474)" fill="#d56f85"/></g></g><g transform="translate(47.264 33.376)" clip-path="url(#dw)"><g transform="translate(-57.381 -45.704)" clip-path="url(#b)"><path d="M214.1-544.853h6.935v9.826H214.1Z" transform="translate(-157.796 589.474)" fill="#c85876"/></g></g><g transform="translate(39.637 0)" clip-path="url(#dy)"><g transform="translate(-49.754 -12.328)" clip-path="url(#b)"><path d="M178.861-699.045h27.825v33.921H178.861Z" transform="translate(-130.189 710.291)" fill="#d56f85"/></g></g><g transform="translate(46.456 0)" clip-path="url(#ea)"><g transform="translate(-56.573 -12.328)" clip-path="url(#b)"><path d="M210.363-699.045h21.006v26.113H210.363Z" transform="translate(-154.872 710.291)" fill="#c85876"/></g></g><g transform="translate(127.007 108.118)" clip-path="url(#ec)"><g transform="translate(-137.125 -120.446)" clip-path="url(#b)"><path d="M582.5-199.55h6.333v4.489H582.5Z" transform="translate(-446.461 318.914)" fill="#9f734a"/></g></g><g transform="translate(130.516 99.554)" clip-path="url(#ee)"><g transform="translate(-140.633 -111.882)" clip-path="url(#b)"><path d="M598.713-239.116h21.711v16.308H598.713Z" transform="translate(-459.162 349.916)" fill="#edd4d4"/></g></g><g transform="translate(41.005 63.777)" clip-path="url(#eg)"><g transform="translate(-51.123 -76.105)" clip-path="url(#b)"><path d="M185.183-404.4H196.3v20.375H185.183Z" transform="translate(-135.142 479.425)" fill="#5d66d2"/></g></g><g transform="translate(44.378 59.362)" clip-path="url(#ei)"><g transform="translate(-54.496 -71.691)" clip-path="url(#b)"><path d="M200.765-424.8h6.29v6.7h-6.29Z" transform="translate(-147.352 495.404)" fill="#eac1a3"/></g></g><g transform="translate(203.932 44.602)" clip-path="url(#ek)"><g transform="translate(-214.049 -56.93)" clip-path="url(#b)"><path d="M937.888-492.988H947v20.638h-9.115Z" transform="translate(-724.921 548.836)" fill="#8babee"/></g></g><g transform="translate(202.319 40.579)" clip-path="url(#em)"><g transform="translate(-212.437 -52.907)" clip-path="url(#b)"><path d="M930.439-511.576h6.834v6.478h-6.834Z" transform="translate(-719.084 563.4)" fill="#eac1a3"/></g></g></svg>